<mxfile host="Electron" modified="2025-01-16T07:12:18.679Z" agent="Mozilla/5.0 (Windows NT 10.0; Win64; x64) AppleWebKit/537.36 (KHTML, like Gecko) draw.io/22.1.18 Chrome/120.0.6099.199 Electron/28.1.2 Safari/537.36" etag="-ioxQ-Fw_qENd-R_3nAQ" version="22.1.18" type="device">
  <diagram name="Database" id="QtQlZDV7554SkUmCelOU">
    <mxGraphModel dx="3690" dy="2767" grid="1" gridSize="10" guides="1" tooltips="1" connect="1" arrows="1" fold="1" page="1" pageScale="1" pageWidth="850" pageHeight="1100" math="0" shadow="0">
      <root>
        <mxCell id="0" />
        <mxCell id="1" parent="0" />
        <mxCell id="lBa9JgSGZAYA5fIGiBvH-1" value="Account" style="rounded=1;arcSize=10;whiteSpace=wrap;html=1;align=center;fillColor=#f8cecc;strokeColor=#b85450;" parent="1" vertex="1">
          <mxGeometry x="10" y="300" width="100" height="40" as="geometry" />
        </mxCell>
        <mxCell id="lBa9JgSGZAYA5fIGiBvH-2" value="Category" style="rounded=1;arcSize=10;whiteSpace=wrap;html=1;align=center;fillColor=#dae8fc;strokeColor=#6c8ebf;" parent="1" vertex="1">
          <mxGeometry x="-370" y="80" width="100" height="40" as="geometry" />
        </mxCell>
        <mxCell id="lBa9JgSGZAYA5fIGiBvH-3" value="Board" style="rounded=1;arcSize=10;whiteSpace=wrap;html=1;align=center;fillColor=#f8cecc;strokeColor=#b85450;" parent="1" vertex="1">
          <mxGeometry x="210" y="510" width="100" height="40" as="geometry" />
        </mxCell>
        <mxCell id="lBa9JgSGZAYA5fIGiBvH-4" value="Record" style="rounded=1;arcSize=10;whiteSpace=wrap;html=1;align=center;fillColor=#dae8fc;strokeColor=#6c8ebf;" parent="1" vertex="1">
          <mxGeometry x="-230" y="730" width="100" height="40" as="geometry" />
        </mxCell>
        <mxCell id="lBa9JgSGZAYA5fIGiBvH-5" value="Extracted Record" style="rounded=1;arcSize=10;whiteSpace=wrap;html=1;align=center;fillColor=#dae8fc;strokeColor=#6c8ebf;" parent="1" vertex="1">
          <mxGeometry x="-320" y="440" width="100" height="40" as="geometry" />
        </mxCell>
        <mxCell id="lBa9JgSGZAYA5fIGiBvH-6" value="Daily Analysis" style="rounded=1;arcSize=10;whiteSpace=wrap;html=1;align=center;fillColor=#dae8fc;strokeColor=#6c8ebf;" parent="1" vertex="1">
          <mxGeometry x="290" y="770" width="100" height="40" as="geometry" />
        </mxCell>
        <mxCell id="lBa9JgSGZAYA5fIGiBvH-7" value="Monthly Analysis" style="rounded=1;arcSize=10;whiteSpace=wrap;html=1;align=center;fillColor=#dae8fc;strokeColor=#6c8ebf;" parent="1" vertex="1">
          <mxGeometry y="780" width="100" height="40" as="geometry" />
        </mxCell>
        <mxCell id="lBa9JgSGZAYA5fIGiBvH-8" value="Yearly Analysis" style="rounded=1;arcSize=10;whiteSpace=wrap;html=1;align=center;fillColor=#dae8fc;strokeColor=#6c8ebf;" parent="1" vertex="1">
          <mxGeometry x="580" y="750" width="100" height="40" as="geometry" />
        </mxCell>
        <mxCell id="lBa9JgSGZAYA5fIGiBvH-10" value="Has" style="shape=rhombus;perimeter=rhombusPerimeter;whiteSpace=wrap;html=1;align=center;fillColor=#f5f5f5;fontColor=#333333;strokeColor=#666666;" parent="1" vertex="1">
          <mxGeometry x="-390" y="260" width="120" height="60" as="geometry" />
        </mxCell>
        <mxCell id="lBa9JgSGZAYA5fIGiBvH-11" value="Has" style="shape=rhombus;perimeter=rhombusPerimeter;whiteSpace=wrap;html=1;align=center;fillColor=#f5f5f5;fontColor=#333333;strokeColor=#666666;" parent="1" vertex="1">
          <mxGeometry x="75" y="390" width="120" height="60" as="geometry" />
        </mxCell>
        <mxCell id="lBa9JgSGZAYA5fIGiBvH-13" value="" style="endArrow=none;html=1;rounded=0;" parent="1" source="lBa9JgSGZAYA5fIGiBvH-1" target="lBa9JgSGZAYA5fIGiBvH-11" edge="1">
          <mxGeometry relative="1" as="geometry">
            <mxPoint x="-40" y="390" as="sourcePoint" />
            <mxPoint x="120" y="390" as="targetPoint" />
          </mxGeometry>
        </mxCell>
        <mxCell id="lBa9JgSGZAYA5fIGiBvH-37" value="1" style="edgeLabel;html=1;align=center;verticalAlign=middle;resizable=0;points=[];" parent="lBa9JgSGZAYA5fIGiBvH-13" vertex="1" connectable="0">
          <mxGeometry x="-0.409" y="3" relative="1" as="geometry">
            <mxPoint as="offset" />
          </mxGeometry>
        </mxCell>
        <mxCell id="lBa9JgSGZAYA5fIGiBvH-14" value="" style="endArrow=none;html=1;rounded=0;" parent="1" source="lBa9JgSGZAYA5fIGiBvH-3" target="lBa9JgSGZAYA5fIGiBvH-11" edge="1">
          <mxGeometry relative="1" as="geometry">
            <mxPoint x="94" y="350" as="sourcePoint" />
            <mxPoint x="168" y="411" as="targetPoint" />
          </mxGeometry>
        </mxCell>
        <mxCell id="lBa9JgSGZAYA5fIGiBvH-38" value="n" style="edgeLabel;html=1;align=center;verticalAlign=middle;resizable=0;points=[];" parent="lBa9JgSGZAYA5fIGiBvH-14" vertex="1" connectable="0">
          <mxGeometry x="-0.4742" y="1" relative="1" as="geometry">
            <mxPoint as="offset" />
          </mxGeometry>
        </mxCell>
        <mxCell id="lBa9JgSGZAYA5fIGiBvH-19" value="Has" style="shape=rhombus;perimeter=rhombusPerimeter;whiteSpace=wrap;html=1;align=center;fillColor=#f5f5f5;fontColor=#333333;strokeColor=#666666;" parent="1" vertex="1">
          <mxGeometry x="-60" y="600" width="120" height="60" as="geometry" />
        </mxCell>
        <mxCell id="lBa9JgSGZAYA5fIGiBvH-20" value="Has" style="shape=rhombus;perimeter=rhombusPerimeter;whiteSpace=wrap;html=1;align=center;fillColor=#f5f5f5;fontColor=#333333;strokeColor=#666666;" parent="1" vertex="1">
          <mxGeometry x="70" y="650" width="120" height="60" as="geometry" />
        </mxCell>
        <mxCell id="lBa9JgSGZAYA5fIGiBvH-21" value="Has" style="shape=rhombus;perimeter=rhombusPerimeter;whiteSpace=wrap;html=1;align=center;fillColor=#f5f5f5;fontColor=#333333;strokeColor=#666666;" parent="1" vertex="1">
          <mxGeometry x="270" y="650" width="120" height="60" as="geometry" />
        </mxCell>
        <mxCell id="lBa9JgSGZAYA5fIGiBvH-22" value="Has" style="shape=rhombus;perimeter=rhombusPerimeter;whiteSpace=wrap;html=1;align=center;fillColor=#f5f5f5;fontColor=#333333;strokeColor=#666666;" parent="1" vertex="1">
          <mxGeometry x="450" y="630" width="120" height="60" as="geometry" />
        </mxCell>
        <mxCell id="lBa9JgSGZAYA5fIGiBvH-23" value="" style="endArrow=none;html=1;rounded=0;" parent="1" source="lBa9JgSGZAYA5fIGiBvH-19" target="lBa9JgSGZAYA5fIGiBvH-3" edge="1">
          <mxGeometry relative="1" as="geometry">
            <mxPoint x="130" y="590" as="sourcePoint" />
            <mxPoint x="290" y="590" as="targetPoint" />
          </mxGeometry>
        </mxCell>
        <mxCell id="lBa9JgSGZAYA5fIGiBvH-46" value="1" style="edgeLabel;html=1;align=center;verticalAlign=middle;resizable=0;points=[];" parent="lBa9JgSGZAYA5fIGiBvH-23" vertex="1" connectable="0">
          <mxGeometry x="0.7783" y="-1" relative="1" as="geometry">
            <mxPoint as="offset" />
          </mxGeometry>
        </mxCell>
        <mxCell id="lBa9JgSGZAYA5fIGiBvH-24" value="" style="endArrow=none;html=1;rounded=0;" parent="1" source="lBa9JgSGZAYA5fIGiBvH-4" target="lBa9JgSGZAYA5fIGiBvH-19" edge="1">
          <mxGeometry relative="1" as="geometry">
            <mxPoint x="53" y="582" as="sourcePoint" />
            <mxPoint x="220" y="550" as="targetPoint" />
          </mxGeometry>
        </mxCell>
        <mxCell id="lBa9JgSGZAYA5fIGiBvH-47" value="n" style="edgeLabel;html=1;align=center;verticalAlign=middle;resizable=0;points=[];" parent="lBa9JgSGZAYA5fIGiBvH-24" vertex="1" connectable="0">
          <mxGeometry x="-0.6741" y="2" relative="1" as="geometry">
            <mxPoint as="offset" />
          </mxGeometry>
        </mxCell>
        <mxCell id="lBa9JgSGZAYA5fIGiBvH-25" value="" style="endArrow=none;html=1;rounded=0;" parent="1" source="lBa9JgSGZAYA5fIGiBvH-7" target="lBa9JgSGZAYA5fIGiBvH-20" edge="1">
          <mxGeometry relative="1" as="geometry">
            <mxPoint x="-113" y="680" as="sourcePoint" />
            <mxPoint x="-14" y="608" as="targetPoint" />
          </mxGeometry>
        </mxCell>
        <mxCell id="lBa9JgSGZAYA5fIGiBvH-45" value="n" style="edgeLabel;html=1;align=center;verticalAlign=middle;resizable=0;points=[];" parent="lBa9JgSGZAYA5fIGiBvH-25" vertex="1" connectable="0">
          <mxGeometry x="-0.5764" y="-2" relative="1" as="geometry">
            <mxPoint as="offset" />
          </mxGeometry>
        </mxCell>
        <mxCell id="lBa9JgSGZAYA5fIGiBvH-26" value="" style="endArrow=none;html=1;rounded=0;" parent="1" source="lBa9JgSGZAYA5fIGiBvH-20" target="lBa9JgSGZAYA5fIGiBvH-3" edge="1">
          <mxGeometry relative="1" as="geometry">
            <mxPoint x="69" y="790" as="sourcePoint" />
            <mxPoint x="109" y="704" as="targetPoint" />
          </mxGeometry>
        </mxCell>
        <mxCell id="lBa9JgSGZAYA5fIGiBvH-44" value="1" style="edgeLabel;html=1;align=center;verticalAlign=middle;resizable=0;points=[];" parent="lBa9JgSGZAYA5fIGiBvH-26" vertex="1" connectable="0">
          <mxGeometry x="0.708" y="-3" relative="1" as="geometry">
            <mxPoint as="offset" />
          </mxGeometry>
        </mxCell>
        <mxCell id="lBa9JgSGZAYA5fIGiBvH-27" value="" style="endArrow=none;html=1;rounded=0;" parent="1" source="lBa9JgSGZAYA5fIGiBvH-6" target="lBa9JgSGZAYA5fIGiBvH-21" edge="1">
          <mxGeometry relative="1" as="geometry">
            <mxPoint x="79" y="800" as="sourcePoint" />
            <mxPoint x="119" y="714" as="targetPoint" />
          </mxGeometry>
        </mxCell>
        <mxCell id="lBa9JgSGZAYA5fIGiBvH-43" value="n" style="edgeLabel;html=1;align=center;verticalAlign=middle;resizable=0;points=[];" parent="lBa9JgSGZAYA5fIGiBvH-27" vertex="1" connectable="0">
          <mxGeometry x="-0.53" relative="1" as="geometry">
            <mxPoint as="offset" />
          </mxGeometry>
        </mxCell>
        <mxCell id="lBa9JgSGZAYA5fIGiBvH-28" value="" style="endArrow=none;html=1;rounded=0;" parent="1" source="lBa9JgSGZAYA5fIGiBvH-21" target="lBa9JgSGZAYA5fIGiBvH-3" edge="1">
          <mxGeometry relative="1" as="geometry">
            <mxPoint x="348" y="780" as="sourcePoint" />
            <mxPoint x="343" y="719" as="targetPoint" />
          </mxGeometry>
        </mxCell>
        <mxCell id="lBa9JgSGZAYA5fIGiBvH-41" value="1" style="edgeLabel;html=1;align=center;verticalAlign=middle;resizable=0;points=[];" parent="lBa9JgSGZAYA5fIGiBvH-28" vertex="1" connectable="0">
          <mxGeometry x="0.6785" y="4" relative="1" as="geometry">
            <mxPoint as="offset" />
          </mxGeometry>
        </mxCell>
        <mxCell id="lBa9JgSGZAYA5fIGiBvH-29" value="" style="endArrow=none;html=1;rounded=0;" parent="1" source="lBa9JgSGZAYA5fIGiBvH-22" target="lBa9JgSGZAYA5fIGiBvH-3" edge="1">
          <mxGeometry relative="1" as="geometry">
            <mxPoint x="358" y="790" as="sourcePoint" />
            <mxPoint x="353" y="729" as="targetPoint" />
          </mxGeometry>
        </mxCell>
        <mxCell id="lBa9JgSGZAYA5fIGiBvH-39" value="1" style="edgeLabel;html=1;align=center;verticalAlign=middle;resizable=0;points=[];" parent="lBa9JgSGZAYA5fIGiBvH-29" vertex="1" connectable="0">
          <mxGeometry x="0.8025" y="1" relative="1" as="geometry">
            <mxPoint as="offset" />
          </mxGeometry>
        </mxCell>
        <mxCell id="lBa9JgSGZAYA5fIGiBvH-30" value="" style="endArrow=none;html=1;rounded=0;" parent="1" source="lBa9JgSGZAYA5fIGiBvH-22" target="lBa9JgSGZAYA5fIGiBvH-8" edge="1">
          <mxGeometry relative="1" as="geometry">
            <mxPoint x="491" y="655" as="sourcePoint" />
            <mxPoint x="308" y="560" as="targetPoint" />
          </mxGeometry>
        </mxCell>
        <mxCell id="lBa9JgSGZAYA5fIGiBvH-40" value="n" style="edgeLabel;html=1;align=center;verticalAlign=middle;resizable=0;points=[];" parent="lBa9JgSGZAYA5fIGiBvH-30" vertex="1" connectable="0">
          <mxGeometry x="0.666" y="2" relative="1" as="geometry">
            <mxPoint as="offset" />
          </mxGeometry>
        </mxCell>
        <mxCell id="lBa9JgSGZAYA5fIGiBvH-31" value="Has" style="shape=rhombus;perimeter=rhombusPerimeter;whiteSpace=wrap;html=1;align=center;fillColor=#f5f5f5;fontColor=#333333;strokeColor=#666666;" parent="1" vertex="1">
          <mxGeometry x="-130" y="430" width="120" height="60" as="geometry" />
        </mxCell>
        <mxCell id="lBa9JgSGZAYA5fIGiBvH-32" value="" style="endArrow=none;html=1;rounded=0;" parent="1" source="lBa9JgSGZAYA5fIGiBvH-31" target="lBa9JgSGZAYA5fIGiBvH-3" edge="1">
          <mxGeometry relative="1" as="geometry">
            <mxPoint x="-20" y="420" as="sourcePoint" />
            <mxPoint x="140" y="420" as="targetPoint" />
          </mxGeometry>
        </mxCell>
        <mxCell id="lBa9JgSGZAYA5fIGiBvH-48" value="1" style="edgeLabel;html=1;align=center;verticalAlign=middle;resizable=0;points=[];" parent="lBa9JgSGZAYA5fIGiBvH-32" vertex="1" connectable="0">
          <mxGeometry x="0.7155" y="-1" relative="1" as="geometry">
            <mxPoint as="offset" />
          </mxGeometry>
        </mxCell>
        <mxCell id="lBa9JgSGZAYA5fIGiBvH-34" value="" style="endArrow=none;html=1;rounded=0;" parent="1" source="lBa9JgSGZAYA5fIGiBvH-5" target="lBa9JgSGZAYA5fIGiBvH-31" edge="1">
          <mxGeometry relative="1" as="geometry">
            <mxPoint x="13" y="523" as="sourcePoint" />
            <mxPoint x="220" y="537" as="targetPoint" />
          </mxGeometry>
        </mxCell>
        <mxCell id="lBa9JgSGZAYA5fIGiBvH-49" value="n" style="edgeLabel;html=1;align=center;verticalAlign=middle;resizable=0;points=[];" parent="lBa9JgSGZAYA5fIGiBvH-34" vertex="1" connectable="0">
          <mxGeometry x="-0.5822" y="-1" relative="1" as="geometry">
            <mxPoint y="1" as="offset" />
          </mxGeometry>
        </mxCell>
        <mxCell id="lBa9JgSGZAYA5fIGiBvH-35" value="" style="endArrow=none;html=1;rounded=0;" parent="1" source="lBa9JgSGZAYA5fIGiBvH-10" target="lBa9JgSGZAYA5fIGiBvH-5" edge="1">
          <mxGeometry relative="1" as="geometry">
            <mxPoint x="-530" y="470" as="sourcePoint" />
            <mxPoint x="-370" y="470" as="targetPoint" />
          </mxGeometry>
        </mxCell>
        <mxCell id="lBa9JgSGZAYA5fIGiBvH-50" value="n" style="edgeLabel;html=1;align=center;verticalAlign=middle;resizable=0;points=[];" parent="lBa9JgSGZAYA5fIGiBvH-35" vertex="1" connectable="0">
          <mxGeometry x="0.5269" y="-1" relative="1" as="geometry">
            <mxPoint as="offset" />
          </mxGeometry>
        </mxCell>
        <mxCell id="lBa9JgSGZAYA5fIGiBvH-36" value="" style="endArrow=none;html=1;rounded=0;" parent="1" source="lBa9JgSGZAYA5fIGiBvH-2" target="lBa9JgSGZAYA5fIGiBvH-10" edge="1">
          <mxGeometry relative="1" as="geometry">
            <mxPoint x="-411" y="585" as="sourcePoint" />
            <mxPoint x="-288" y="520" as="targetPoint" />
          </mxGeometry>
        </mxCell>
        <mxCell id="lBa9JgSGZAYA5fIGiBvH-51" value="m" style="edgeLabel;html=1;align=center;verticalAlign=middle;resizable=0;points=[];" parent="lBa9JgSGZAYA5fIGiBvH-36" vertex="1" connectable="0">
          <mxGeometry x="-0.6482" relative="1" as="geometry">
            <mxPoint as="offset" />
          </mxGeometry>
        </mxCell>
        <mxCell id="lBa9JgSGZAYA5fIGiBvH-52" value="Board" style="shape=table;startSize=30;container=1;collapsible=1;childLayout=tableLayout;fixedRows=1;rowLines=0;fontStyle=1;align=center;resizeLast=1;html=1;fillColor=#f8cecc;strokeColor=#b85450;" parent="1" vertex="1">
          <mxGeometry x="1370" y="530" width="180" height="210" as="geometry" />
        </mxCell>
        <mxCell id="lBa9JgSGZAYA5fIGiBvH-53" value="" style="shape=tableRow;horizontal=0;startSize=0;swimlaneHead=0;swimlaneBody=0;fillColor=none;collapsible=0;dropTarget=0;points=[[0,0.5],[1,0.5]];portConstraint=eastwest;top=0;left=0;right=0;bottom=1;" parent="lBa9JgSGZAYA5fIGiBvH-52" vertex="1">
          <mxGeometry y="30" width="180" height="30" as="geometry" />
        </mxCell>
        <mxCell id="lBa9JgSGZAYA5fIGiBvH-54" value="PK" style="shape=partialRectangle;connectable=0;fillColor=none;top=0;left=0;bottom=0;right=0;fontStyle=1;overflow=hidden;whiteSpace=wrap;html=1;" parent="lBa9JgSGZAYA5fIGiBvH-53" vertex="1">
          <mxGeometry width="30" height="30" as="geometry">
            <mxRectangle width="30" height="30" as="alternateBounds" />
          </mxGeometry>
        </mxCell>
        <mxCell id="lBa9JgSGZAYA5fIGiBvH-55" value="boardId : ObjectId" style="shape=partialRectangle;connectable=0;fillColor=none;top=0;left=0;bottom=0;right=0;align=left;spacingLeft=6;fontStyle=5;overflow=hidden;whiteSpace=wrap;html=1;" parent="lBa9JgSGZAYA5fIGiBvH-53" vertex="1">
          <mxGeometry x="30" width="150" height="30" as="geometry">
            <mxRectangle width="150" height="30" as="alternateBounds" />
          </mxGeometry>
        </mxCell>
        <mxCell id="lBa9JgSGZAYA5fIGiBvH-56" value="" style="shape=tableRow;horizontal=0;startSize=0;swimlaneHead=0;swimlaneBody=0;fillColor=none;collapsible=0;dropTarget=0;points=[[0,0.5],[1,0.5]];portConstraint=eastwest;top=0;left=0;right=0;bottom=0;" parent="lBa9JgSGZAYA5fIGiBvH-52" vertex="1">
          <mxGeometry y="60" width="180" height="30" as="geometry" />
        </mxCell>
        <mxCell id="lBa9JgSGZAYA5fIGiBvH-57" value="UK" style="shape=partialRectangle;connectable=0;fillColor=none;top=0;left=0;bottom=0;right=0;editable=1;overflow=hidden;whiteSpace=wrap;html=1;" parent="lBa9JgSGZAYA5fIGiBvH-56" vertex="1">
          <mxGeometry width="30" height="30" as="geometry">
            <mxRectangle width="30" height="30" as="alternateBounds" />
          </mxGeometry>
        </mxCell>
        <mxCell id="lBa9JgSGZAYA5fIGiBvH-58" value="name : string" style="shape=partialRectangle;connectable=0;fillColor=none;top=0;left=0;bottom=0;right=0;align=left;spacingLeft=6;overflow=hidden;whiteSpace=wrap;html=1;" parent="lBa9JgSGZAYA5fIGiBvH-56" vertex="1">
          <mxGeometry x="30" width="150" height="30" as="geometry">
            <mxRectangle width="150" height="30" as="alternateBounds" />
          </mxGeometry>
        </mxCell>
        <mxCell id="lBa9JgSGZAYA5fIGiBvH-59" value="" style="shape=tableRow;horizontal=0;startSize=0;swimlaneHead=0;swimlaneBody=0;fillColor=none;collapsible=0;dropTarget=0;points=[[0,0.5],[1,0.5]];portConstraint=eastwest;top=0;left=0;right=0;bottom=0;" parent="lBa9JgSGZAYA5fIGiBvH-52" vertex="1">
          <mxGeometry y="90" width="180" height="30" as="geometry" />
        </mxCell>
        <mxCell id="lBa9JgSGZAYA5fIGiBvH-60" value="" style="shape=partialRectangle;connectable=0;fillColor=none;top=0;left=0;bottom=0;right=0;editable=1;overflow=hidden;whiteSpace=wrap;html=1;" parent="lBa9JgSGZAYA5fIGiBvH-59" vertex="1">
          <mxGeometry width="30" height="30" as="geometry">
            <mxRectangle width="30" height="30" as="alternateBounds" />
          </mxGeometry>
        </mxCell>
        <mxCell id="lBa9JgSGZAYA5fIGiBvH-61" value="createdAt : Date" style="shape=partialRectangle;connectable=0;fillColor=none;top=0;left=0;bottom=0;right=0;align=left;spacingLeft=6;overflow=hidden;whiteSpace=wrap;html=1;" parent="lBa9JgSGZAYA5fIGiBvH-59" vertex="1">
          <mxGeometry x="30" width="150" height="30" as="geometry">
            <mxRectangle width="150" height="30" as="alternateBounds" />
          </mxGeometry>
        </mxCell>
        <mxCell id="lBa9JgSGZAYA5fIGiBvH-213" value="" style="shape=tableRow;horizontal=0;startSize=0;swimlaneHead=0;swimlaneBody=0;fillColor=none;collapsible=0;dropTarget=0;points=[[0,0.5],[1,0.5]];portConstraint=eastwest;top=0;left=0;right=0;bottom=0;" parent="lBa9JgSGZAYA5fIGiBvH-52" vertex="1">
          <mxGeometry y="120" width="180" height="30" as="geometry" />
        </mxCell>
        <mxCell id="lBa9JgSGZAYA5fIGiBvH-214" value="" style="shape=partialRectangle;connectable=0;fillColor=none;top=0;left=0;bottom=0;right=0;editable=1;overflow=hidden;" parent="lBa9JgSGZAYA5fIGiBvH-213" vertex="1">
          <mxGeometry width="30" height="30" as="geometry">
            <mxRectangle width="30" height="30" as="alternateBounds" />
          </mxGeometry>
        </mxCell>
        <mxCell id="lBa9JgSGZAYA5fIGiBvH-215" value="language : string" style="shape=partialRectangle;connectable=0;fillColor=none;top=0;left=0;bottom=0;right=0;align=left;spacingLeft=6;overflow=hidden;" parent="lBa9JgSGZAYA5fIGiBvH-213" vertex="1">
          <mxGeometry x="30" width="150" height="30" as="geometry">
            <mxRectangle width="150" height="30" as="alternateBounds" />
          </mxGeometry>
        </mxCell>
        <mxCell id="lBa9JgSGZAYA5fIGiBvH-62" value="" style="shape=tableRow;horizontal=0;startSize=0;swimlaneHead=0;swimlaneBody=0;fillColor=none;collapsible=0;dropTarget=0;points=[[0,0.5],[1,0.5]];portConstraint=eastwest;top=0;left=0;right=0;bottom=0;" parent="lBa9JgSGZAYA5fIGiBvH-52" vertex="1">
          <mxGeometry y="150" width="180" height="30" as="geometry" />
        </mxCell>
        <mxCell id="lBa9JgSGZAYA5fIGiBvH-63" value="" style="shape=partialRectangle;connectable=0;fillColor=none;top=0;left=0;bottom=0;right=0;editable=1;overflow=hidden;whiteSpace=wrap;html=1;" parent="lBa9JgSGZAYA5fIGiBvH-62" vertex="1">
          <mxGeometry width="30" height="30" as="geometry">
            <mxRectangle width="30" height="30" as="alternateBounds" />
          </mxGeometry>
        </mxCell>
        <mxCell id="lBa9JgSGZAYA5fIGiBvH-64" value="currencyUnit : string" style="shape=partialRectangle;connectable=0;fillColor=none;top=0;left=0;bottom=0;right=0;align=left;spacingLeft=6;overflow=hidden;whiteSpace=wrap;html=1;" parent="lBa9JgSGZAYA5fIGiBvH-62" vertex="1">
          <mxGeometry x="30" width="150" height="30" as="geometry">
            <mxRectangle width="150" height="30" as="alternateBounds" />
          </mxGeometry>
        </mxCell>
        <mxCell id="lBa9JgSGZAYA5fIGiBvH-207" value="" style="shape=tableRow;horizontal=0;startSize=0;swimlaneHead=0;swimlaneBody=0;fillColor=none;collapsible=0;dropTarget=0;points=[[0,0.5],[1,0.5]];portConstraint=eastwest;top=0;left=0;right=0;bottom=0;" parent="lBa9JgSGZAYA5fIGiBvH-52" vertex="1">
          <mxGeometry y="180" width="180" height="30" as="geometry" />
        </mxCell>
        <mxCell id="lBa9JgSGZAYA5fIGiBvH-208" value="FK" style="shape=partialRectangle;connectable=0;fillColor=none;top=0;left=0;bottom=0;right=0;editable=1;overflow=hidden;" parent="lBa9JgSGZAYA5fIGiBvH-207" vertex="1">
          <mxGeometry width="30" height="30" as="geometry">
            <mxRectangle width="30" height="30" as="alternateBounds" />
          </mxGeometry>
        </mxCell>
        <mxCell id="lBa9JgSGZAYA5fIGiBvH-209" value="accountId : ObjectId" style="shape=partialRectangle;connectable=0;fillColor=none;top=0;left=0;bottom=0;right=0;align=left;spacingLeft=6;overflow=hidden;" parent="lBa9JgSGZAYA5fIGiBvH-207" vertex="1">
          <mxGeometry x="30" width="150" height="30" as="geometry">
            <mxRectangle width="150" height="30" as="alternateBounds" />
          </mxGeometry>
        </mxCell>
        <mxCell id="lBa9JgSGZAYA5fIGiBvH-86" value="Category" style="shape=table;startSize=30;container=1;collapsible=1;childLayout=tableLayout;fixedRows=1;rowLines=0;fontStyle=1;align=center;resizeLast=1;html=1;fillColor=#dae8fc;strokeColor=#6c8ebf;" parent="1" vertex="1">
          <mxGeometry x="1030" y="-190" width="180" height="180" as="geometry" />
        </mxCell>
        <mxCell id="lBa9JgSGZAYA5fIGiBvH-87" value="" style="shape=tableRow;horizontal=0;startSize=0;swimlaneHead=0;swimlaneBody=0;fillColor=none;collapsible=0;dropTarget=0;points=[[0,0.5],[1,0.5]];portConstraint=eastwest;top=0;left=0;right=0;bottom=1;" parent="lBa9JgSGZAYA5fIGiBvH-86" vertex="1">
          <mxGeometry y="30" width="180" height="30" as="geometry" />
        </mxCell>
        <mxCell id="lBa9JgSGZAYA5fIGiBvH-88" value="PK" style="shape=partialRectangle;connectable=0;fillColor=none;top=0;left=0;bottom=0;right=0;fontStyle=1;overflow=hidden;whiteSpace=wrap;html=1;" parent="lBa9JgSGZAYA5fIGiBvH-87" vertex="1">
          <mxGeometry width="30" height="30" as="geometry">
            <mxRectangle width="30" height="30" as="alternateBounds" />
          </mxGeometry>
        </mxCell>
        <mxCell id="lBa9JgSGZAYA5fIGiBvH-89" value="categoryId : ObjectId" style="shape=partialRectangle;connectable=0;fillColor=none;top=0;left=0;bottom=0;right=0;align=left;spacingLeft=6;fontStyle=5;overflow=hidden;whiteSpace=wrap;html=1;" parent="lBa9JgSGZAYA5fIGiBvH-87" vertex="1">
          <mxGeometry x="30" width="150" height="30" as="geometry">
            <mxRectangle width="150" height="30" as="alternateBounds" />
          </mxGeometry>
        </mxCell>
        <mxCell id="lBa9JgSGZAYA5fIGiBvH-90" value="" style="shape=tableRow;horizontal=0;startSize=0;swimlaneHead=0;swimlaneBody=0;fillColor=none;collapsible=0;dropTarget=0;points=[[0,0.5],[1,0.5]];portConstraint=eastwest;top=0;left=0;right=0;bottom=0;" parent="lBa9JgSGZAYA5fIGiBvH-86" vertex="1">
          <mxGeometry y="60" width="180" height="30" as="geometry" />
        </mxCell>
        <mxCell id="lBa9JgSGZAYA5fIGiBvH-91" value="UK" style="shape=partialRectangle;connectable=0;fillColor=none;top=0;left=0;bottom=0;right=0;editable=1;overflow=hidden;whiteSpace=wrap;html=1;" parent="lBa9JgSGZAYA5fIGiBvH-90" vertex="1">
          <mxGeometry width="30" height="30" as="geometry">
            <mxRectangle width="30" height="30" as="alternateBounds" />
          </mxGeometry>
        </mxCell>
        <mxCell id="lBa9JgSGZAYA5fIGiBvH-92" value="name : string" style="shape=partialRectangle;connectable=0;fillColor=none;top=0;left=0;bottom=0;right=0;align=left;spacingLeft=6;overflow=hidden;whiteSpace=wrap;html=1;" parent="lBa9JgSGZAYA5fIGiBvH-90" vertex="1">
          <mxGeometry x="30" width="150" height="30" as="geometry">
            <mxRectangle width="150" height="30" as="alternateBounds" />
          </mxGeometry>
        </mxCell>
        <mxCell id="lBa9JgSGZAYA5fIGiBvH-223" value="" style="shape=tableRow;horizontal=0;startSize=0;swimlaneHead=0;swimlaneBody=0;fillColor=none;collapsible=0;dropTarget=0;points=[[0,0.5],[1,0.5]];portConstraint=eastwest;top=0;left=0;right=0;bottom=0;" parent="lBa9JgSGZAYA5fIGiBvH-86" vertex="1">
          <mxGeometry y="90" width="180" height="30" as="geometry" />
        </mxCell>
        <mxCell id="lBa9JgSGZAYA5fIGiBvH-224" value="" style="shape=partialRectangle;connectable=0;fillColor=none;top=0;left=0;bottom=0;right=0;editable=1;overflow=hidden;" parent="lBa9JgSGZAYA5fIGiBvH-223" vertex="1">
          <mxGeometry width="30" height="30" as="geometry">
            <mxRectangle width="30" height="30" as="alternateBounds" />
          </mxGeometry>
        </mxCell>
        <mxCell id="lBa9JgSGZAYA5fIGiBvH-225" value="language : string" style="shape=partialRectangle;connectable=0;fillColor=none;top=0;left=0;bottom=0;right=0;align=left;spacingLeft=6;overflow=hidden;" parent="lBa9JgSGZAYA5fIGiBvH-223" vertex="1">
          <mxGeometry x="30" width="150" height="30" as="geometry">
            <mxRectangle width="150" height="30" as="alternateBounds" />
          </mxGeometry>
        </mxCell>
        <mxCell id="lBa9JgSGZAYA5fIGiBvH-226" value="" style="shape=tableRow;horizontal=0;startSize=0;swimlaneHead=0;swimlaneBody=0;fillColor=none;collapsible=0;dropTarget=0;points=[[0,0.5],[1,0.5]];portConstraint=eastwest;top=0;left=0;right=0;bottom=0;" parent="lBa9JgSGZAYA5fIGiBvH-86" vertex="1">
          <mxGeometry y="120" width="180" height="30" as="geometry" />
        </mxCell>
        <mxCell id="lBa9JgSGZAYA5fIGiBvH-227" value="" style="shape=partialRectangle;connectable=0;fillColor=none;top=0;left=0;bottom=0;right=0;editable=1;overflow=hidden;" parent="lBa9JgSGZAYA5fIGiBvH-226" vertex="1">
          <mxGeometry width="30" height="30" as="geometry">
            <mxRectangle width="30" height="30" as="alternateBounds" />
          </mxGeometry>
        </mxCell>
        <mxCell id="lBa9JgSGZAYA5fIGiBvH-228" value="color : string" style="shape=partialRectangle;connectable=0;fillColor=none;top=0;left=0;bottom=0;right=0;align=left;spacingLeft=6;overflow=hidden;" parent="lBa9JgSGZAYA5fIGiBvH-226" vertex="1">
          <mxGeometry x="30" width="150" height="30" as="geometry">
            <mxRectangle width="150" height="30" as="alternateBounds" />
          </mxGeometry>
        </mxCell>
        <mxCell id="lBa9JgSGZAYA5fIGiBvH-229" value="" style="shape=tableRow;horizontal=0;startSize=0;swimlaneHead=0;swimlaneBody=0;fillColor=none;collapsible=0;dropTarget=0;points=[[0,0.5],[1,0.5]];portConstraint=eastwest;top=0;left=0;right=0;bottom=0;" parent="lBa9JgSGZAYA5fIGiBvH-86" vertex="1">
          <mxGeometry y="150" width="180" height="30" as="geometry" />
        </mxCell>
        <mxCell id="lBa9JgSGZAYA5fIGiBvH-230" value="" style="shape=partialRectangle;connectable=0;fillColor=none;top=0;left=0;bottom=0;right=0;editable=1;overflow=hidden;" parent="lBa9JgSGZAYA5fIGiBvH-229" vertex="1">
          <mxGeometry width="30" height="30" as="geometry">
            <mxRectangle width="30" height="30" as="alternateBounds" />
          </mxGeometry>
        </mxCell>
        <mxCell id="lBa9JgSGZAYA5fIGiBvH-231" value="accountId : ObjectId" style="shape=partialRectangle;connectable=0;fillColor=none;top=0;left=0;bottom=0;right=0;align=left;spacingLeft=6;overflow=hidden;" parent="lBa9JgSGZAYA5fIGiBvH-229" vertex="1">
          <mxGeometry x="30" width="150" height="30" as="geometry">
            <mxRectangle width="150" height="30" as="alternateBounds" />
          </mxGeometry>
        </mxCell>
        <mxCell id="lBa9JgSGZAYA5fIGiBvH-101" value="Record" style="shape=table;startSize=30;container=1;collapsible=1;childLayout=tableLayout;fixedRows=1;rowLines=0;fontStyle=1;align=center;resizeLast=1;html=1;fillColor=#dae8fc;strokeColor=#6c8ebf;" parent="1" vertex="1">
          <mxGeometry x="1340" y="140" width="180" height="150" as="geometry" />
        </mxCell>
        <mxCell id="lBa9JgSGZAYA5fIGiBvH-102" value="" style="shape=tableRow;horizontal=0;startSize=0;swimlaneHead=0;swimlaneBody=0;fillColor=none;collapsible=0;dropTarget=0;points=[[0,0.5],[1,0.5]];portConstraint=eastwest;top=0;left=0;right=0;bottom=1;" parent="lBa9JgSGZAYA5fIGiBvH-101" vertex="1">
          <mxGeometry y="30" width="180" height="30" as="geometry" />
        </mxCell>
        <mxCell id="lBa9JgSGZAYA5fIGiBvH-103" value="PK" style="shape=partialRectangle;connectable=0;fillColor=none;top=0;left=0;bottom=0;right=0;fontStyle=1;overflow=hidden;whiteSpace=wrap;html=1;" parent="lBa9JgSGZAYA5fIGiBvH-102" vertex="1">
          <mxGeometry width="30" height="30" as="geometry">
            <mxRectangle width="30" height="30" as="alternateBounds" />
          </mxGeometry>
        </mxCell>
        <mxCell id="lBa9JgSGZAYA5fIGiBvH-104" value="recordId : ObjectId" style="shape=partialRectangle;connectable=0;fillColor=none;top=0;left=0;bottom=0;right=0;align=left;spacingLeft=6;fontStyle=5;overflow=hidden;whiteSpace=wrap;html=1;" parent="lBa9JgSGZAYA5fIGiBvH-102" vertex="1">
          <mxGeometry x="30" width="150" height="30" as="geometry">
            <mxRectangle width="150" height="30" as="alternateBounds" />
          </mxGeometry>
        </mxCell>
        <mxCell id="lBa9JgSGZAYA5fIGiBvH-105" value="" style="shape=tableRow;horizontal=0;startSize=0;swimlaneHead=0;swimlaneBody=0;fillColor=none;collapsible=0;dropTarget=0;points=[[0,0.5],[1,0.5]];portConstraint=eastwest;top=0;left=0;right=0;bottom=0;" parent="lBa9JgSGZAYA5fIGiBvH-101" vertex="1">
          <mxGeometry y="60" width="180" height="30" as="geometry" />
        </mxCell>
        <mxCell id="lBa9JgSGZAYA5fIGiBvH-106" value="FK" style="shape=partialRectangle;connectable=0;fillColor=none;top=0;left=0;bottom=0;right=0;editable=1;overflow=hidden;whiteSpace=wrap;html=1;" parent="lBa9JgSGZAYA5fIGiBvH-105" vertex="1">
          <mxGeometry width="30" height="30" as="geometry">
            <mxRectangle width="30" height="30" as="alternateBounds" />
          </mxGeometry>
        </mxCell>
        <mxCell id="lBa9JgSGZAYA5fIGiBvH-107" value="boardId : number" style="shape=partialRectangle;connectable=0;fillColor=none;top=0;left=0;bottom=0;right=0;align=left;spacingLeft=6;overflow=hidden;whiteSpace=wrap;html=1;" parent="lBa9JgSGZAYA5fIGiBvH-105" vertex="1">
          <mxGeometry x="30" width="150" height="30" as="geometry">
            <mxRectangle width="150" height="30" as="alternateBounds" />
          </mxGeometry>
        </mxCell>
        <mxCell id="lBa9JgSGZAYA5fIGiBvH-108" value="" style="shape=tableRow;horizontal=0;startSize=0;swimlaneHead=0;swimlaneBody=0;fillColor=none;collapsible=0;dropTarget=0;points=[[0,0.5],[1,0.5]];portConstraint=eastwest;top=0;left=0;right=0;bottom=0;" parent="lBa9JgSGZAYA5fIGiBvH-101" vertex="1">
          <mxGeometry y="90" width="180" height="30" as="geometry" />
        </mxCell>
        <mxCell id="lBa9JgSGZAYA5fIGiBvH-109" value="" style="shape=partialRectangle;connectable=0;fillColor=none;top=0;left=0;bottom=0;right=0;editable=1;overflow=hidden;whiteSpace=wrap;html=1;" parent="lBa9JgSGZAYA5fIGiBvH-108" vertex="1">
          <mxGeometry width="30" height="30" as="geometry">
            <mxRectangle width="30" height="30" as="alternateBounds" />
          </mxGeometry>
        </mxCell>
        <mxCell id="lBa9JgSGZAYA5fIGiBvH-110" value="content : string" style="shape=partialRectangle;connectable=0;fillColor=none;top=0;left=0;bottom=0;right=0;align=left;spacingLeft=6;overflow=hidden;whiteSpace=wrap;html=1;" parent="lBa9JgSGZAYA5fIGiBvH-108" vertex="1">
          <mxGeometry x="30" width="150" height="30" as="geometry">
            <mxRectangle width="150" height="30" as="alternateBounds" />
          </mxGeometry>
        </mxCell>
        <mxCell id="lBa9JgSGZAYA5fIGiBvH-111" value="" style="shape=tableRow;horizontal=0;startSize=0;swimlaneHead=0;swimlaneBody=0;fillColor=none;collapsible=0;dropTarget=0;points=[[0,0.5],[1,0.5]];portConstraint=eastwest;top=0;left=0;right=0;bottom=0;" parent="lBa9JgSGZAYA5fIGiBvH-101" vertex="1">
          <mxGeometry y="120" width="180" height="30" as="geometry" />
        </mxCell>
        <mxCell id="lBa9JgSGZAYA5fIGiBvH-112" value="" style="shape=partialRectangle;connectable=0;fillColor=none;top=0;left=0;bottom=0;right=0;editable=1;overflow=hidden;whiteSpace=wrap;html=1;" parent="lBa9JgSGZAYA5fIGiBvH-111" vertex="1">
          <mxGeometry width="30" height="30" as="geometry">
            <mxRectangle width="30" height="30" as="alternateBounds" />
          </mxGeometry>
        </mxCell>
        <mxCell id="lBa9JgSGZAYA5fIGiBvH-113" value="createdAt : string" style="shape=partialRectangle;connectable=0;fillColor=none;top=0;left=0;bottom=0;right=0;align=left;spacingLeft=6;overflow=hidden;whiteSpace=wrap;html=1;" parent="lBa9JgSGZAYA5fIGiBvH-111" vertex="1">
          <mxGeometry x="30" width="150" height="30" as="geometry">
            <mxRectangle width="150" height="30" as="alternateBounds" />
          </mxGeometry>
        </mxCell>
        <mxCell id="lBa9JgSGZAYA5fIGiBvH-114" value="" style="edgeStyle=entityRelationEdgeStyle;fontSize=12;html=1;endArrow=ERoneToMany;startArrow=ERmandOne;rounded=0;" parent="1" source="lBa9JgSGZAYA5fIGiBvH-53" target="lBa9JgSGZAYA5fIGiBvH-105" edge="1">
          <mxGeometry width="100" height="100" relative="1" as="geometry">
            <mxPoint x="1620" y="520" as="sourcePoint" />
            <mxPoint x="1750" y="780" as="targetPoint" />
            <Array as="points">
              <mxPoint x="1640" y="390" />
            </Array>
          </mxGeometry>
        </mxCell>
        <mxCell id="lBa9JgSGZAYA5fIGiBvH-115" value="ExtractedRecord" style="shape=table;startSize=30;container=1;collapsible=1;childLayout=tableLayout;fixedRows=1;rowLines=0;fontStyle=1;align=center;resizeLast=1;html=1;fillColor=#dae8fc;strokeColor=#6c8ebf;" parent="1" vertex="1">
          <mxGeometry x="1310" y="-260" width="200" height="300" as="geometry" />
        </mxCell>
        <mxCell id="lBa9JgSGZAYA5fIGiBvH-116" value="" style="shape=tableRow;horizontal=0;startSize=0;swimlaneHead=0;swimlaneBody=0;fillColor=none;collapsible=0;dropTarget=0;points=[[0,0.5],[1,0.5]];portConstraint=eastwest;top=0;left=0;right=0;bottom=1;" parent="lBa9JgSGZAYA5fIGiBvH-115" vertex="1">
          <mxGeometry y="30" width="200" height="30" as="geometry" />
        </mxCell>
        <mxCell id="lBa9JgSGZAYA5fIGiBvH-117" value="PK" style="shape=partialRectangle;connectable=0;fillColor=none;top=0;left=0;bottom=0;right=0;fontStyle=1;overflow=hidden;whiteSpace=wrap;html=1;" parent="lBa9JgSGZAYA5fIGiBvH-116" vertex="1">
          <mxGeometry width="30" height="30" as="geometry">
            <mxRectangle width="30" height="30" as="alternateBounds" />
          </mxGeometry>
        </mxCell>
        <mxCell id="lBa9JgSGZAYA5fIGiBvH-118" value="recordId : ObjectId" style="shape=partialRectangle;connectable=0;fillColor=none;top=0;left=0;bottom=0;right=0;align=left;spacingLeft=6;fontStyle=5;overflow=hidden;whiteSpace=wrap;html=1;" parent="lBa9JgSGZAYA5fIGiBvH-116" vertex="1">
          <mxGeometry x="30" width="170" height="30" as="geometry">
            <mxRectangle width="170" height="30" as="alternateBounds" />
          </mxGeometry>
        </mxCell>
        <mxCell id="lBa9JgSGZAYA5fIGiBvH-153" value="" style="shape=tableRow;horizontal=0;startSize=0;swimlaneHead=0;swimlaneBody=0;fillColor=none;collapsible=0;dropTarget=0;points=[[0,0.5],[1,0.5]];portConstraint=eastwest;top=0;left=0;right=0;bottom=0;" parent="lBa9JgSGZAYA5fIGiBvH-115" vertex="1">
          <mxGeometry y="60" width="200" height="30" as="geometry" />
        </mxCell>
        <mxCell id="lBa9JgSGZAYA5fIGiBvH-154" value="FK" style="shape=partialRectangle;connectable=0;fillColor=none;top=0;left=0;bottom=0;right=0;editable=1;overflow=hidden;" parent="lBa9JgSGZAYA5fIGiBvH-153" vertex="1">
          <mxGeometry width="30" height="30" as="geometry">
            <mxRectangle width="30" height="30" as="alternateBounds" />
          </mxGeometry>
        </mxCell>
        <mxCell id="lBa9JgSGZAYA5fIGiBvH-155" value="categories : Array&lt;ObjectId&gt;" style="shape=partialRectangle;connectable=0;fillColor=none;top=0;left=0;bottom=0;right=0;align=left;spacingLeft=6;overflow=hidden;" parent="lBa9JgSGZAYA5fIGiBvH-153" vertex="1">
          <mxGeometry x="30" width="170" height="30" as="geometry">
            <mxRectangle width="170" height="30" as="alternateBounds" />
          </mxGeometry>
        </mxCell>
        <mxCell id="lBa9JgSGZAYA5fIGiBvH-119" value="" style="shape=tableRow;horizontal=0;startSize=0;swimlaneHead=0;swimlaneBody=0;fillColor=none;collapsible=0;dropTarget=0;points=[[0,0.5],[1,0.5]];portConstraint=eastwest;top=0;left=0;right=0;bottom=0;" parent="lBa9JgSGZAYA5fIGiBvH-115" vertex="1">
          <mxGeometry y="90" width="200" height="30" as="geometry" />
        </mxCell>
        <mxCell id="lBa9JgSGZAYA5fIGiBvH-120" value="FK" style="shape=partialRectangle;connectable=0;fillColor=none;top=0;left=0;bottom=0;right=0;editable=1;overflow=hidden;whiteSpace=wrap;html=1;" parent="lBa9JgSGZAYA5fIGiBvH-119" vertex="1">
          <mxGeometry width="30" height="30" as="geometry">
            <mxRectangle width="30" height="30" as="alternateBounds" />
          </mxGeometry>
        </mxCell>
        <mxCell id="lBa9JgSGZAYA5fIGiBvH-121" value="boardId : number" style="shape=partialRectangle;connectable=0;fillColor=none;top=0;left=0;bottom=0;right=0;align=left;spacingLeft=6;overflow=hidden;whiteSpace=wrap;html=1;" parent="lBa9JgSGZAYA5fIGiBvH-119" vertex="1">
          <mxGeometry x="30" width="170" height="30" as="geometry">
            <mxRectangle width="170" height="30" as="alternateBounds" />
          </mxGeometry>
        </mxCell>
        <mxCell id="lBa9JgSGZAYA5fIGiBvH-122" value="" style="shape=tableRow;horizontal=0;startSize=0;swimlaneHead=0;swimlaneBody=0;fillColor=none;collapsible=0;dropTarget=0;points=[[0,0.5],[1,0.5]];portConstraint=eastwest;top=0;left=0;right=0;bottom=0;" parent="lBa9JgSGZAYA5fIGiBvH-115" vertex="1">
          <mxGeometry y="120" width="200" height="30" as="geometry" />
        </mxCell>
        <mxCell id="lBa9JgSGZAYA5fIGiBvH-123" value="FK" style="shape=partialRectangle;connectable=0;fillColor=none;top=0;left=0;bottom=0;right=0;editable=1;overflow=hidden;whiteSpace=wrap;html=1;" parent="lBa9JgSGZAYA5fIGiBvH-122" vertex="1">
          <mxGeometry width="30" height="30" as="geometry">
            <mxRectangle width="30" height="30" as="alternateBounds" />
          </mxGeometry>
        </mxCell>
        <mxCell id="lBa9JgSGZAYA5fIGiBvH-124" value="recordId : number" style="shape=partialRectangle;connectable=0;fillColor=none;top=0;left=0;bottom=0;right=0;align=left;spacingLeft=6;overflow=hidden;whiteSpace=wrap;html=1;" parent="lBa9JgSGZAYA5fIGiBvH-122" vertex="1">
          <mxGeometry x="30" width="170" height="30" as="geometry">
            <mxRectangle width="170" height="30" as="alternateBounds" />
          </mxGeometry>
        </mxCell>
        <mxCell id="lBa9JgSGZAYA5fIGiBvH-125" value="" style="shape=tableRow;horizontal=0;startSize=0;swimlaneHead=0;swimlaneBody=0;fillColor=none;collapsible=0;dropTarget=0;points=[[0,0.5],[1,0.5]];portConstraint=eastwest;top=0;left=0;right=0;bottom=0;" parent="lBa9JgSGZAYA5fIGiBvH-115" vertex="1">
          <mxGeometry y="150" width="200" height="30" as="geometry" />
        </mxCell>
        <mxCell id="lBa9JgSGZAYA5fIGiBvH-126" value="" style="shape=partialRectangle;connectable=0;fillColor=none;top=0;left=0;bottom=0;right=0;editable=1;overflow=hidden;whiteSpace=wrap;html=1;" parent="lBa9JgSGZAYA5fIGiBvH-125" vertex="1">
          <mxGeometry width="30" height="30" as="geometry">
            <mxRectangle width="30" height="30" as="alternateBounds" />
          </mxGeometry>
        </mxCell>
        <mxCell id="lBa9JgSGZAYA5fIGiBvH-127" value="createdAt : string" style="shape=partialRectangle;connectable=0;fillColor=none;top=0;left=0;bottom=0;right=0;align=left;spacingLeft=6;overflow=hidden;whiteSpace=wrap;html=1;" parent="lBa9JgSGZAYA5fIGiBvH-125" vertex="1">
          <mxGeometry x="30" width="170" height="30" as="geometry">
            <mxRectangle width="170" height="30" as="alternateBounds" />
          </mxGeometry>
        </mxCell>
        <mxCell id="lBa9JgSGZAYA5fIGiBvH-170" value="" style="shape=tableRow;horizontal=0;startSize=0;swimlaneHead=0;swimlaneBody=0;fillColor=none;collapsible=0;dropTarget=0;points=[[0,0.5],[1,0.5]];portConstraint=eastwest;top=0;left=0;right=0;bottom=0;" parent="lBa9JgSGZAYA5fIGiBvH-115" vertex="1">
          <mxGeometry y="180" width="200" height="30" as="geometry" />
        </mxCell>
        <mxCell id="lBa9JgSGZAYA5fIGiBvH-171" value="" style="shape=partialRectangle;connectable=0;fillColor=none;top=0;left=0;bottom=0;right=0;editable=1;overflow=hidden;" parent="lBa9JgSGZAYA5fIGiBvH-170" vertex="1">
          <mxGeometry width="30" height="30" as="geometry">
            <mxRectangle width="30" height="30" as="alternateBounds" />
          </mxGeometry>
        </mxCell>
        <mxCell id="lBa9JgSGZAYA5fIGiBvH-172" value="amount : number" style="shape=partialRectangle;connectable=0;fillColor=none;top=0;left=0;bottom=0;right=0;align=left;spacingLeft=6;overflow=hidden;" parent="lBa9JgSGZAYA5fIGiBvH-170" vertex="1">
          <mxGeometry x="30" width="170" height="30" as="geometry">
            <mxRectangle width="170" height="30" as="alternateBounds" />
          </mxGeometry>
        </mxCell>
        <mxCell id="lBa9JgSGZAYA5fIGiBvH-173" value="" style="shape=tableRow;horizontal=0;startSize=0;swimlaneHead=0;swimlaneBody=0;fillColor=none;collapsible=0;dropTarget=0;points=[[0,0.5],[1,0.5]];portConstraint=eastwest;top=0;left=0;right=0;bottom=0;" parent="lBa9JgSGZAYA5fIGiBvH-115" vertex="1">
          <mxGeometry y="210" width="200" height="30" as="geometry" />
        </mxCell>
        <mxCell id="lBa9JgSGZAYA5fIGiBvH-174" value="" style="shape=partialRectangle;connectable=0;fillColor=none;top=0;left=0;bottom=0;right=0;editable=1;overflow=hidden;" parent="lBa9JgSGZAYA5fIGiBvH-173" vertex="1">
          <mxGeometry width="30" height="30" as="geometry">
            <mxRectangle width="30" height="30" as="alternateBounds" />
          </mxGeometry>
        </mxCell>
        <mxCell id="lBa9JgSGZAYA5fIGiBvH-175" value="description : string" style="shape=partialRectangle;connectable=0;fillColor=none;top=0;left=0;bottom=0;right=0;align=left;spacingLeft=6;overflow=hidden;" parent="lBa9JgSGZAYA5fIGiBvH-173" vertex="1">
          <mxGeometry x="30" width="170" height="30" as="geometry">
            <mxRectangle width="170" height="30" as="alternateBounds" />
          </mxGeometry>
        </mxCell>
        <mxCell id="lBa9JgSGZAYA5fIGiBvH-177" value="" style="shape=tableRow;horizontal=0;startSize=0;swimlaneHead=0;swimlaneBody=0;fillColor=none;collapsible=0;dropTarget=0;points=[[0,0.5],[1,0.5]];portConstraint=eastwest;top=0;left=0;right=0;bottom=0;" parent="lBa9JgSGZAYA5fIGiBvH-115" vertex="1">
          <mxGeometry y="240" width="200" height="30" as="geometry" />
        </mxCell>
        <mxCell id="lBa9JgSGZAYA5fIGiBvH-178" value="" style="shape=partialRectangle;connectable=0;fillColor=none;top=0;left=0;bottom=0;right=0;editable=1;overflow=hidden;" parent="lBa9JgSGZAYA5fIGiBvH-177" vertex="1">
          <mxGeometry width="30" height="30" as="geometry">
            <mxRectangle width="30" height="30" as="alternateBounds" />
          </mxGeometry>
        </mxCell>
        <mxCell id="lBa9JgSGZAYA5fIGiBvH-179" value="notes : string" style="shape=partialRectangle;connectable=0;fillColor=none;top=0;left=0;bottom=0;right=0;align=left;spacingLeft=6;overflow=hidden;" parent="lBa9JgSGZAYA5fIGiBvH-177" vertex="1">
          <mxGeometry x="30" width="170" height="30" as="geometry">
            <mxRectangle width="170" height="30" as="alternateBounds" />
          </mxGeometry>
        </mxCell>
        <mxCell id="lBa9JgSGZAYA5fIGiBvH-180" value="" style="shape=tableRow;horizontal=0;startSize=0;swimlaneHead=0;swimlaneBody=0;fillColor=none;collapsible=0;dropTarget=0;points=[[0,0.5],[1,0.5]];portConstraint=eastwest;top=0;left=0;right=0;bottom=0;" parent="lBa9JgSGZAYA5fIGiBvH-115" vertex="1">
          <mxGeometry y="270" width="200" height="30" as="geometry" />
        </mxCell>
        <mxCell id="lBa9JgSGZAYA5fIGiBvH-181" value="" style="shape=partialRectangle;connectable=0;fillColor=none;top=0;left=0;bottom=0;right=0;editable=1;overflow=hidden;" parent="lBa9JgSGZAYA5fIGiBvH-180" vertex="1">
          <mxGeometry width="30" height="30" as="geometry">
            <mxRectangle width="30" height="30" as="alternateBounds" />
          </mxGeometry>
        </mxCell>
        <mxCell id="lBa9JgSGZAYA5fIGiBvH-182" value="createdAt : Date" style="shape=partialRectangle;connectable=0;fillColor=none;top=0;left=0;bottom=0;right=0;align=left;spacingLeft=6;overflow=hidden;" parent="lBa9JgSGZAYA5fIGiBvH-180" vertex="1">
          <mxGeometry x="30" width="170" height="30" as="geometry">
            <mxRectangle width="170" height="30" as="alternateBounds" />
          </mxGeometry>
        </mxCell>
        <mxCell id="lBa9JgSGZAYA5fIGiBvH-128" value="Has" style="shape=rhombus;perimeter=rhombusPerimeter;whiteSpace=wrap;html=1;align=center;fillColor=#f5f5f5;fontColor=#333333;strokeColor=#666666;" parent="1" vertex="1">
          <mxGeometry x="-310" y="580" width="120" height="60" as="geometry" />
        </mxCell>
        <mxCell id="lBa9JgSGZAYA5fIGiBvH-129" value="" style="endArrow=none;html=1;rounded=0;" parent="1" source="lBa9JgSGZAYA5fIGiBvH-5" target="lBa9JgSGZAYA5fIGiBvH-128" edge="1">
          <mxGeometry relative="1" as="geometry">
            <mxPoint x="-290" y="580" as="sourcePoint" />
            <mxPoint x="-130" y="580" as="targetPoint" />
          </mxGeometry>
        </mxCell>
        <mxCell id="lBa9JgSGZAYA5fIGiBvH-131" value="1" style="edgeLabel;html=1;align=center;verticalAlign=middle;resizable=0;points=[];" parent="lBa9JgSGZAYA5fIGiBvH-129" vertex="1" connectable="0">
          <mxGeometry x="-0.5484" relative="1" as="geometry">
            <mxPoint as="offset" />
          </mxGeometry>
        </mxCell>
        <mxCell id="lBa9JgSGZAYA5fIGiBvH-130" value="" style="endArrow=none;html=1;rounded=0;" parent="1" source="lBa9JgSGZAYA5fIGiBvH-128" target="lBa9JgSGZAYA5fIGiBvH-4" edge="1">
          <mxGeometry relative="1" as="geometry">
            <mxPoint x="-236" y="490" as="sourcePoint" />
            <mxPoint x="-143" y="566" as="targetPoint" />
          </mxGeometry>
        </mxCell>
        <mxCell id="lBa9JgSGZAYA5fIGiBvH-132" value="1" style="edgeLabel;html=1;align=center;verticalAlign=middle;resizable=0;points=[];" parent="lBa9JgSGZAYA5fIGiBvH-130" vertex="1" connectable="0">
          <mxGeometry x="0.7701" y="3" relative="1" as="geometry">
            <mxPoint as="offset" />
          </mxGeometry>
        </mxCell>
        <mxCell id="lBa9JgSGZAYA5fIGiBvH-134" value="" style="edgeStyle=entityRelationEdgeStyle;fontSize=12;html=1;endArrow=ERmandOne;startArrow=ERmandOne;rounded=0;" parent="1" source="lBa9JgSGZAYA5fIGiBvH-102" target="lBa9JgSGZAYA5fIGiBvH-122" edge="1">
          <mxGeometry width="100" height="100" relative="1" as="geometry">
            <mxPoint x="1130" y="-50" as="sourcePoint" />
            <mxPoint x="1230" y="-150" as="targetPoint" />
          </mxGeometry>
        </mxCell>
        <mxCell id="lBa9JgSGZAYA5fIGiBvH-135" value="" style="edgeStyle=entityRelationEdgeStyle;fontSize=12;html=1;endArrow=ERoneToMany;startArrow=ERmandOne;rounded=0;" parent="1" source="lBa9JgSGZAYA5fIGiBvH-53" target="lBa9JgSGZAYA5fIGiBvH-119" edge="1">
          <mxGeometry width="100" height="100" relative="1" as="geometry">
            <mxPoint x="1560" y="585" as="sourcePoint" />
            <mxPoint x="1760" y="755" as="targetPoint" />
            <Array as="points">
              <mxPoint x="1600" y="210" />
              <mxPoint x="1610" y="210" />
            </Array>
          </mxGeometry>
        </mxCell>
        <mxCell id="lBa9JgSGZAYA5fIGiBvH-156" value="" style="edgeStyle=entityRelationEdgeStyle;fontSize=12;html=1;endArrow=ERoneToMany;startArrow=ERoneToMany;rounded=0;" parent="1" source="lBa9JgSGZAYA5fIGiBvH-153" target="lBa9JgSGZAYA5fIGiBvH-87" edge="1">
          <mxGeometry width="100" height="100" relative="1" as="geometry">
            <mxPoint x="1520" y="-160" as="sourcePoint" />
            <mxPoint x="1620" y="-260" as="targetPoint" />
          </mxGeometry>
        </mxCell>
        <mxCell id="lBa9JgSGZAYA5fIGiBvH-157" value="DailyAnalysis" style="shape=table;startSize=30;container=1;collapsible=1;childLayout=tableLayout;fixedRows=1;rowLines=0;fontStyle=1;align=center;resizeLast=1;html=1;fillColor=#dae8fc;strokeColor=#6c8ebf;" parent="1" vertex="1">
          <mxGeometry x="1720" y="90" width="260" height="240" as="geometry" />
        </mxCell>
        <mxCell id="lBa9JgSGZAYA5fIGiBvH-158" value="" style="shape=tableRow;horizontal=0;startSize=0;swimlaneHead=0;swimlaneBody=0;fillColor=none;collapsible=0;dropTarget=0;points=[[0,0.5],[1,0.5]];portConstraint=eastwest;top=0;left=0;right=0;bottom=1;" parent="lBa9JgSGZAYA5fIGiBvH-157" vertex="1">
          <mxGeometry y="30" width="260" height="30" as="geometry" />
        </mxCell>
        <mxCell id="lBa9JgSGZAYA5fIGiBvH-159" value="PK" style="shape=partialRectangle;connectable=0;fillColor=none;top=0;left=0;bottom=0;right=0;fontStyle=1;overflow=hidden;whiteSpace=wrap;html=1;" parent="lBa9JgSGZAYA5fIGiBvH-158" vertex="1">
          <mxGeometry width="30" height="30" as="geometry">
            <mxRectangle width="30" height="30" as="alternateBounds" />
          </mxGeometry>
        </mxCell>
        <mxCell id="lBa9JgSGZAYA5fIGiBvH-160" value="dailyAnalysisId : ObjectId" style="shape=partialRectangle;connectable=0;fillColor=none;top=0;left=0;bottom=0;right=0;align=left;spacingLeft=6;fontStyle=5;overflow=hidden;whiteSpace=wrap;html=1;" parent="lBa9JgSGZAYA5fIGiBvH-158" vertex="1">
          <mxGeometry x="30" width="230" height="30" as="geometry">
            <mxRectangle width="230" height="30" as="alternateBounds" />
          </mxGeometry>
        </mxCell>
        <mxCell id="lBa9JgSGZAYA5fIGiBvH-161" value="" style="shape=tableRow;horizontal=0;startSize=0;swimlaneHead=0;swimlaneBody=0;fillColor=none;collapsible=0;dropTarget=0;points=[[0,0.5],[1,0.5]];portConstraint=eastwest;top=0;left=0;right=0;bottom=0;" parent="lBa9JgSGZAYA5fIGiBvH-157" vertex="1">
          <mxGeometry y="60" width="260" height="30" as="geometry" />
        </mxCell>
        <mxCell id="lBa9JgSGZAYA5fIGiBvH-162" value="FK" style="shape=partialRectangle;connectable=0;fillColor=none;top=0;left=0;bottom=0;right=0;editable=1;overflow=hidden;whiteSpace=wrap;html=1;" parent="lBa9JgSGZAYA5fIGiBvH-161" vertex="1">
          <mxGeometry width="30" height="30" as="geometry">
            <mxRectangle width="30" height="30" as="alternateBounds" />
          </mxGeometry>
        </mxCell>
        <mxCell id="lBa9JgSGZAYA5fIGiBvH-163" value="boardId : ObjectId" style="shape=partialRectangle;connectable=0;fillColor=none;top=0;left=0;bottom=0;right=0;align=left;spacingLeft=6;overflow=hidden;whiteSpace=wrap;html=1;" parent="lBa9JgSGZAYA5fIGiBvH-161" vertex="1">
          <mxGeometry x="30" width="230" height="30" as="geometry">
            <mxRectangle width="230" height="30" as="alternateBounds" />
          </mxGeometry>
        </mxCell>
        <mxCell id="lBa9JgSGZAYA5fIGiBvH-164" value="" style="shape=tableRow;horizontal=0;startSize=0;swimlaneHead=0;swimlaneBody=0;fillColor=none;collapsible=0;dropTarget=0;points=[[0,0.5],[1,0.5]];portConstraint=eastwest;top=0;left=0;right=0;bottom=0;" parent="lBa9JgSGZAYA5fIGiBvH-157" vertex="1">
          <mxGeometry y="90" width="260" height="30" as="geometry" />
        </mxCell>
        <mxCell id="lBa9JgSGZAYA5fIGiBvH-165" value="" style="shape=partialRectangle;connectable=0;fillColor=none;top=0;left=0;bottom=0;right=0;editable=1;overflow=hidden;whiteSpace=wrap;html=1;" parent="lBa9JgSGZAYA5fIGiBvH-164" vertex="1">
          <mxGeometry width="30" height="30" as="geometry">
            <mxRectangle width="30" height="30" as="alternateBounds" />
          </mxGeometry>
        </mxCell>
        <mxCell id="lBa9JgSGZAYA5fIGiBvH-166" value="total : number" style="shape=partialRectangle;connectable=0;fillColor=none;top=0;left=0;bottom=0;right=0;align=left;spacingLeft=6;overflow=hidden;whiteSpace=wrap;html=1;" parent="lBa9JgSGZAYA5fIGiBvH-164" vertex="1">
          <mxGeometry x="30" width="230" height="30" as="geometry">
            <mxRectangle width="230" height="30" as="alternateBounds" />
          </mxGeometry>
        </mxCell>
        <mxCell id="lBa9JgSGZAYA5fIGiBvH-167" value="" style="shape=tableRow;horizontal=0;startSize=0;swimlaneHead=0;swimlaneBody=0;fillColor=none;collapsible=0;dropTarget=0;points=[[0,0.5],[1,0.5]];portConstraint=eastwest;top=0;left=0;right=0;bottom=0;" parent="lBa9JgSGZAYA5fIGiBvH-157" vertex="1">
          <mxGeometry y="120" width="260" height="30" as="geometry" />
        </mxCell>
        <mxCell id="lBa9JgSGZAYA5fIGiBvH-168" value="" style="shape=partialRectangle;connectable=0;fillColor=none;top=0;left=0;bottom=0;right=0;editable=1;overflow=hidden;whiteSpace=wrap;html=1;" parent="lBa9JgSGZAYA5fIGiBvH-167" vertex="1">
          <mxGeometry width="30" height="30" as="geometry">
            <mxRectangle width="30" height="30" as="alternateBounds" />
          </mxGeometry>
        </mxCell>
        <mxCell id="lBa9JgSGZAYA5fIGiBvH-169" value="date : number" style="shape=partialRectangle;connectable=0;fillColor=none;top=0;left=0;bottom=0;right=0;align=left;spacingLeft=6;overflow=hidden;whiteSpace=wrap;html=1;" parent="lBa9JgSGZAYA5fIGiBvH-167" vertex="1">
          <mxGeometry x="30" width="230" height="30" as="geometry">
            <mxRectangle width="230" height="30" as="alternateBounds" />
          </mxGeometry>
        </mxCell>
        <mxCell id="lBa9JgSGZAYA5fIGiBvH-243" value="" style="shape=tableRow;horizontal=0;startSize=0;swimlaneHead=0;swimlaneBody=0;fillColor=none;collapsible=0;dropTarget=0;points=[[0,0.5],[1,0.5]];portConstraint=eastwest;top=0;left=0;right=0;bottom=0;" parent="lBa9JgSGZAYA5fIGiBvH-157" vertex="1">
          <mxGeometry y="150" width="260" height="30" as="geometry" />
        </mxCell>
        <mxCell id="lBa9JgSGZAYA5fIGiBvH-244" value="" style="shape=partialRectangle;connectable=0;fillColor=none;top=0;left=0;bottom=0;right=0;editable=1;overflow=hidden;" parent="lBa9JgSGZAYA5fIGiBvH-243" vertex="1">
          <mxGeometry width="30" height="30" as="geometry">
            <mxRectangle width="30" height="30" as="alternateBounds" />
          </mxGeometry>
        </mxCell>
        <mxCell id="lBa9JgSGZAYA5fIGiBvH-245" value="month : number" style="shape=partialRectangle;connectable=0;fillColor=none;top=0;left=0;bottom=0;right=0;align=left;spacingLeft=6;overflow=hidden;" parent="lBa9JgSGZAYA5fIGiBvH-243" vertex="1">
          <mxGeometry x="30" width="230" height="30" as="geometry">
            <mxRectangle width="230" height="30" as="alternateBounds" />
          </mxGeometry>
        </mxCell>
        <mxCell id="lBa9JgSGZAYA5fIGiBvH-246" value="" style="shape=tableRow;horizontal=0;startSize=0;swimlaneHead=0;swimlaneBody=0;fillColor=none;collapsible=0;dropTarget=0;points=[[0,0.5],[1,0.5]];portConstraint=eastwest;top=0;left=0;right=0;bottom=0;" parent="lBa9JgSGZAYA5fIGiBvH-157" vertex="1">
          <mxGeometry y="180" width="260" height="30" as="geometry" />
        </mxCell>
        <mxCell id="lBa9JgSGZAYA5fIGiBvH-247" value="" style="shape=partialRectangle;connectable=0;fillColor=none;top=0;left=0;bottom=0;right=0;editable=1;overflow=hidden;" parent="lBa9JgSGZAYA5fIGiBvH-246" vertex="1">
          <mxGeometry width="30" height="30" as="geometry">
            <mxRectangle width="30" height="30" as="alternateBounds" />
          </mxGeometry>
        </mxCell>
        <mxCell id="lBa9JgSGZAYA5fIGiBvH-248" value="year : number" style="shape=partialRectangle;connectable=0;fillColor=none;top=0;left=0;bottom=0;right=0;align=left;spacingLeft=6;overflow=hidden;" parent="lBa9JgSGZAYA5fIGiBvH-246" vertex="1">
          <mxGeometry x="30" width="230" height="30" as="geometry">
            <mxRectangle width="230" height="30" as="alternateBounds" />
          </mxGeometry>
        </mxCell>
        <mxCell id="lBa9JgSGZAYA5fIGiBvH-249" value="" style="shape=tableRow;horizontal=0;startSize=0;swimlaneHead=0;swimlaneBody=0;fillColor=none;collapsible=0;dropTarget=0;points=[[0,0.5],[1,0.5]];portConstraint=eastwest;top=0;left=0;right=0;bottom=0;" parent="lBa9JgSGZAYA5fIGiBvH-157" vertex="1">
          <mxGeometry y="210" width="260" height="30" as="geometry" />
        </mxCell>
        <mxCell id="lBa9JgSGZAYA5fIGiBvH-250" value="" style="shape=partialRectangle;connectable=0;fillColor=none;top=0;left=0;bottom=0;right=0;editable=1;overflow=hidden;" parent="lBa9JgSGZAYA5fIGiBvH-249" vertex="1">
          <mxGeometry width="30" height="30" as="geometry">
            <mxRectangle width="30" height="30" as="alternateBounds" />
          </mxGeometry>
        </mxCell>
        <mxCell id="lBa9JgSGZAYA5fIGiBvH-251" value="createdAt : Date" style="shape=partialRectangle;connectable=0;fillColor=none;top=0;left=0;bottom=0;right=0;align=left;spacingLeft=6;overflow=hidden;" parent="lBa9JgSGZAYA5fIGiBvH-249" vertex="1">
          <mxGeometry x="30" width="230" height="30" as="geometry">
            <mxRectangle width="230" height="30" as="alternateBounds" />
          </mxGeometry>
        </mxCell>
        <mxCell id="lBa9JgSGZAYA5fIGiBvH-183" value="Account" style="shape=table;startSize=30;container=1;collapsible=1;childLayout=tableLayout;fixedRows=1;rowLines=0;fontStyle=1;align=center;resizeLast=1;html=1;fillColor=#f8cecc;strokeColor=#b85450;" parent="1" vertex="1">
          <mxGeometry x="1030" y="290" width="180" height="330" as="geometry" />
        </mxCell>
        <mxCell id="lBa9JgSGZAYA5fIGiBvH-184" value="" style="shape=tableRow;horizontal=0;startSize=0;swimlaneHead=0;swimlaneBody=0;fillColor=none;collapsible=0;dropTarget=0;points=[[0,0.5],[1,0.5]];portConstraint=eastwest;top=0;left=0;right=0;bottom=1;" parent="lBa9JgSGZAYA5fIGiBvH-183" vertex="1">
          <mxGeometry y="30" width="180" height="30" as="geometry" />
        </mxCell>
        <mxCell id="lBa9JgSGZAYA5fIGiBvH-185" value="PK" style="shape=partialRectangle;connectable=0;fillColor=none;top=0;left=0;bottom=0;right=0;fontStyle=1;overflow=hidden;whiteSpace=wrap;html=1;" parent="lBa9JgSGZAYA5fIGiBvH-184" vertex="1">
          <mxGeometry width="30" height="30" as="geometry">
            <mxRectangle width="30" height="30" as="alternateBounds" />
          </mxGeometry>
        </mxCell>
        <mxCell id="lBa9JgSGZAYA5fIGiBvH-186" value="accountId : ObjectId" style="shape=partialRectangle;connectable=0;fillColor=none;top=0;left=0;bottom=0;right=0;align=left;spacingLeft=6;fontStyle=5;overflow=hidden;whiteSpace=wrap;html=1;" parent="lBa9JgSGZAYA5fIGiBvH-184" vertex="1">
          <mxGeometry x="30" width="150" height="30" as="geometry">
            <mxRectangle width="150" height="30" as="alternateBounds" />
          </mxGeometry>
        </mxCell>
        <mxCell id="lBa9JgSGZAYA5fIGiBvH-187" value="" style="shape=tableRow;horizontal=0;startSize=0;swimlaneHead=0;swimlaneBody=0;fillColor=none;collapsible=0;dropTarget=0;points=[[0,0.5],[1,0.5]];portConstraint=eastwest;top=0;left=0;right=0;bottom=0;" parent="lBa9JgSGZAYA5fIGiBvH-183" vertex="1">
          <mxGeometry y="60" width="180" height="30" as="geometry" />
        </mxCell>
        <mxCell id="lBa9JgSGZAYA5fIGiBvH-188" value="FK" style="shape=partialRectangle;connectable=0;fillColor=none;top=0;left=0;bottom=0;right=0;editable=1;overflow=hidden;whiteSpace=wrap;html=1;" parent="lBa9JgSGZAYA5fIGiBvH-187" vertex="1">
          <mxGeometry width="30" height="30" as="geometry">
            <mxRectangle width="30" height="30" as="alternateBounds" />
          </mxGeometry>
        </mxCell>
        <mxCell id="lBa9JgSGZAYA5fIGiBvH-189" value="email : string" style="shape=partialRectangle;connectable=0;fillColor=none;top=0;left=0;bottom=0;right=0;align=left;spacingLeft=6;overflow=hidden;whiteSpace=wrap;html=1;" parent="lBa9JgSGZAYA5fIGiBvH-187" vertex="1">
          <mxGeometry x="30" width="150" height="30" as="geometry">
            <mxRectangle width="150" height="30" as="alternateBounds" />
          </mxGeometry>
        </mxCell>
        <mxCell id="lBa9JgSGZAYA5fIGiBvH-190" value="" style="shape=tableRow;horizontal=0;startSize=0;swimlaneHead=0;swimlaneBody=0;fillColor=none;collapsible=0;dropTarget=0;points=[[0,0.5],[1,0.5]];portConstraint=eastwest;top=0;left=0;right=0;bottom=0;" parent="lBa9JgSGZAYA5fIGiBvH-183" vertex="1">
          <mxGeometry y="90" width="180" height="30" as="geometry" />
        </mxCell>
        <mxCell id="lBa9JgSGZAYA5fIGiBvH-191" value="FK" style="shape=partialRectangle;connectable=0;fillColor=none;top=0;left=0;bottom=0;right=0;editable=1;overflow=hidden;whiteSpace=wrap;html=1;" parent="lBa9JgSGZAYA5fIGiBvH-190" vertex="1">
          <mxGeometry width="30" height="30" as="geometry">
            <mxRectangle width="30" height="30" as="alternateBounds" />
          </mxGeometry>
        </mxCell>
        <mxCell id="lBa9JgSGZAYA5fIGiBvH-192" value="phone : string" style="shape=partialRectangle;connectable=0;fillColor=none;top=0;left=0;bottom=0;right=0;align=left;spacingLeft=6;overflow=hidden;whiteSpace=wrap;html=1;" parent="lBa9JgSGZAYA5fIGiBvH-190" vertex="1">
          <mxGeometry x="30" width="150" height="30" as="geometry">
            <mxRectangle width="150" height="30" as="alternateBounds" />
          </mxGeometry>
        </mxCell>
        <mxCell id="lBa9JgSGZAYA5fIGiBvH-240" value="" style="shape=tableRow;horizontal=0;startSize=0;swimlaneHead=0;swimlaneBody=0;fillColor=none;collapsible=0;dropTarget=0;points=[[0,0.5],[1,0.5]];portConstraint=eastwest;top=0;left=0;right=0;bottom=0;" parent="lBa9JgSGZAYA5fIGiBvH-183" vertex="1">
          <mxGeometry y="120" width="180" height="30" as="geometry" />
        </mxCell>
        <mxCell id="lBa9JgSGZAYA5fIGiBvH-241" value="" style="shape=partialRectangle;connectable=0;fillColor=none;top=0;left=0;bottom=0;right=0;editable=1;overflow=hidden;" parent="lBa9JgSGZAYA5fIGiBvH-240" vertex="1">
          <mxGeometry width="30" height="30" as="geometry">
            <mxRectangle width="30" height="30" as="alternateBounds" />
          </mxGeometry>
        </mxCell>
        <mxCell id="lBa9JgSGZAYA5fIGiBvH-242" value="password : string" style="shape=partialRectangle;connectable=0;fillColor=none;top=0;left=0;bottom=0;right=0;align=left;spacingLeft=6;overflow=hidden;" parent="lBa9JgSGZAYA5fIGiBvH-240" vertex="1">
          <mxGeometry x="30" width="150" height="30" as="geometry">
            <mxRectangle width="150" height="30" as="alternateBounds" />
          </mxGeometry>
        </mxCell>
        <mxCell id="lBa9JgSGZAYA5fIGiBvH-193" value="" style="shape=tableRow;horizontal=0;startSize=0;swimlaneHead=0;swimlaneBody=0;fillColor=none;collapsible=0;dropTarget=0;points=[[0,0.5],[1,0.5]];portConstraint=eastwest;top=0;left=0;right=0;bottom=0;" parent="lBa9JgSGZAYA5fIGiBvH-183" vertex="1">
          <mxGeometry y="150" width="180" height="30" as="geometry" />
        </mxCell>
        <mxCell id="lBa9JgSGZAYA5fIGiBvH-194" value="" style="shape=partialRectangle;connectable=0;fillColor=none;top=0;left=0;bottom=0;right=0;editable=1;overflow=hidden;whiteSpace=wrap;html=1;" parent="lBa9JgSGZAYA5fIGiBvH-193" vertex="1">
          <mxGeometry width="30" height="30" as="geometry">
            <mxRectangle width="30" height="30" as="alternateBounds" />
          </mxGeometry>
        </mxCell>
        <mxCell id="lBa9JgSGZAYA5fIGiBvH-195" value="fname : string" style="shape=partialRectangle;connectable=0;fillColor=none;top=0;left=0;bottom=0;right=0;align=left;spacingLeft=6;overflow=hidden;whiteSpace=wrap;html=1;" parent="lBa9JgSGZAYA5fIGiBvH-193" vertex="1">
          <mxGeometry x="30" width="150" height="30" as="geometry">
            <mxRectangle width="150" height="30" as="alternateBounds" />
          </mxGeometry>
        </mxCell>
        <mxCell id="lBa9JgSGZAYA5fIGiBvH-196" value="" style="shape=tableRow;horizontal=0;startSize=0;swimlaneHead=0;swimlaneBody=0;fillColor=none;collapsible=0;dropTarget=0;points=[[0,0.5],[1,0.5]];portConstraint=eastwest;top=0;left=0;right=0;bottom=0;" parent="lBa9JgSGZAYA5fIGiBvH-183" vertex="1">
          <mxGeometry y="180" width="180" height="30" as="geometry" />
        </mxCell>
        <mxCell id="lBa9JgSGZAYA5fIGiBvH-197" value="" style="shape=partialRectangle;connectable=0;fillColor=none;top=0;left=0;bottom=0;right=0;editable=1;overflow=hidden;" parent="lBa9JgSGZAYA5fIGiBvH-196" vertex="1">
          <mxGeometry width="30" height="30" as="geometry">
            <mxRectangle width="30" height="30" as="alternateBounds" />
          </mxGeometry>
        </mxCell>
        <mxCell id="lBa9JgSGZAYA5fIGiBvH-198" value="lname : string" style="shape=partialRectangle;connectable=0;fillColor=none;top=0;left=0;bottom=0;right=0;align=left;spacingLeft=6;overflow=hidden;" parent="lBa9JgSGZAYA5fIGiBvH-196" vertex="1">
          <mxGeometry x="30" width="150" height="30" as="geometry">
            <mxRectangle width="150" height="30" as="alternateBounds" />
          </mxGeometry>
        </mxCell>
        <mxCell id="lBa9JgSGZAYA5fIGiBvH-200" value="" style="shape=tableRow;horizontal=0;startSize=0;swimlaneHead=0;swimlaneBody=0;fillColor=none;collapsible=0;dropTarget=0;points=[[0,0.5],[1,0.5]];portConstraint=eastwest;top=0;left=0;right=0;bottom=0;" parent="lBa9JgSGZAYA5fIGiBvH-183" vertex="1">
          <mxGeometry y="210" width="180" height="30" as="geometry" />
        </mxCell>
        <mxCell id="lBa9JgSGZAYA5fIGiBvH-201" value="" style="shape=partialRectangle;connectable=0;fillColor=none;top=0;left=0;bottom=0;right=0;editable=1;overflow=hidden;" parent="lBa9JgSGZAYA5fIGiBvH-200" vertex="1">
          <mxGeometry width="30" height="30" as="geometry">
            <mxRectangle width="30" height="30" as="alternateBounds" />
          </mxGeometry>
        </mxCell>
        <mxCell id="lBa9JgSGZAYA5fIGiBvH-202" value="role : number" style="shape=partialRectangle;connectable=0;fillColor=none;top=0;left=0;bottom=0;right=0;align=left;spacingLeft=6;overflow=hidden;" parent="lBa9JgSGZAYA5fIGiBvH-200" vertex="1">
          <mxGeometry x="30" width="150" height="30" as="geometry">
            <mxRectangle width="150" height="30" as="alternateBounds" />
          </mxGeometry>
        </mxCell>
        <mxCell id="lBa9JgSGZAYA5fIGiBvH-204" value="" style="shape=tableRow;horizontal=0;startSize=0;swimlaneHead=0;swimlaneBody=0;fillColor=none;collapsible=0;dropTarget=0;points=[[0,0.5],[1,0.5]];portConstraint=eastwest;top=0;left=0;right=0;bottom=0;" parent="lBa9JgSGZAYA5fIGiBvH-183" vertex="1">
          <mxGeometry y="240" width="180" height="30" as="geometry" />
        </mxCell>
        <mxCell id="lBa9JgSGZAYA5fIGiBvH-205" value="" style="shape=partialRectangle;connectable=0;fillColor=none;top=0;left=0;bottom=0;right=0;editable=1;overflow=hidden;" parent="lBa9JgSGZAYA5fIGiBvH-204" vertex="1">
          <mxGeometry width="30" height="30" as="geometry">
            <mxRectangle width="30" height="30" as="alternateBounds" />
          </mxGeometry>
        </mxCell>
        <mxCell id="lBa9JgSGZAYA5fIGiBvH-206" value="avt : string" style="shape=partialRectangle;connectable=0;fillColor=none;top=0;left=0;bottom=0;right=0;align=left;spacingLeft=6;overflow=hidden;" parent="lBa9JgSGZAYA5fIGiBvH-204" vertex="1">
          <mxGeometry x="30" width="150" height="30" as="geometry">
            <mxRectangle width="150" height="30" as="alternateBounds" />
          </mxGeometry>
        </mxCell>
        <mxCell id="lBa9JgSGZAYA5fIGiBvH-234" value="" style="shape=tableRow;horizontal=0;startSize=0;swimlaneHead=0;swimlaneBody=0;fillColor=none;collapsible=0;dropTarget=0;points=[[0,0.5],[1,0.5]];portConstraint=eastwest;top=0;left=0;right=0;bottom=0;" parent="lBa9JgSGZAYA5fIGiBvH-183" vertex="1">
          <mxGeometry y="270" width="180" height="30" as="geometry" />
        </mxCell>
        <mxCell id="lBa9JgSGZAYA5fIGiBvH-235" value="" style="shape=partialRectangle;connectable=0;fillColor=none;top=0;left=0;bottom=0;right=0;editable=1;overflow=hidden;" parent="lBa9JgSGZAYA5fIGiBvH-234" vertex="1">
          <mxGeometry width="30" height="30" as="geometry">
            <mxRectangle width="30" height="30" as="alternateBounds" />
          </mxGeometry>
        </mxCell>
        <mxCell id="lBa9JgSGZAYA5fIGiBvH-236" value="createdAt : Date" style="shape=partialRectangle;connectable=0;fillColor=none;top=0;left=0;bottom=0;right=0;align=left;spacingLeft=6;overflow=hidden;" parent="lBa9JgSGZAYA5fIGiBvH-234" vertex="1">
          <mxGeometry x="30" width="150" height="30" as="geometry">
            <mxRectangle width="150" height="30" as="alternateBounds" />
          </mxGeometry>
        </mxCell>
        <mxCell id="lBa9JgSGZAYA5fIGiBvH-237" value="" style="shape=tableRow;horizontal=0;startSize=0;swimlaneHead=0;swimlaneBody=0;fillColor=none;collapsible=0;dropTarget=0;points=[[0,0.5],[1,0.5]];portConstraint=eastwest;top=0;left=0;right=0;bottom=0;" parent="lBa9JgSGZAYA5fIGiBvH-183" vertex="1">
          <mxGeometry y="300" width="180" height="30" as="geometry" />
        </mxCell>
        <mxCell id="lBa9JgSGZAYA5fIGiBvH-238" value="" style="shape=partialRectangle;connectable=0;fillColor=none;top=0;left=0;bottom=0;right=0;editable=1;overflow=hidden;" parent="lBa9JgSGZAYA5fIGiBvH-237" vertex="1">
          <mxGeometry width="30" height="30" as="geometry">
            <mxRectangle width="30" height="30" as="alternateBounds" />
          </mxGeometry>
        </mxCell>
        <mxCell id="lBa9JgSGZAYA5fIGiBvH-239" value="updatedAt : Date" style="shape=partialRectangle;connectable=0;fillColor=none;top=0;left=0;bottom=0;right=0;align=left;spacingLeft=6;overflow=hidden;" parent="lBa9JgSGZAYA5fIGiBvH-237" vertex="1">
          <mxGeometry x="30" width="150" height="30" as="geometry">
            <mxRectangle width="150" height="30" as="alternateBounds" />
          </mxGeometry>
        </mxCell>
        <mxCell id="lBa9JgSGZAYA5fIGiBvH-211" value="" style="edgeStyle=entityRelationEdgeStyle;fontSize=12;html=1;endArrow=ERoneToMany;startArrow=ERmandOne;rounded=0;" parent="1" source="lBa9JgSGZAYA5fIGiBvH-184" target="lBa9JgSGZAYA5fIGiBvH-207" edge="1">
          <mxGeometry width="100" height="100" relative="1" as="geometry">
            <mxPoint x="1560" y="585" as="sourcePoint" />
            <mxPoint x="1760" y="385" as="targetPoint" />
            <Array as="points">
              <mxPoint x="1550" y="420" />
            </Array>
          </mxGeometry>
        </mxCell>
        <mxCell id="lBa9JgSGZAYA5fIGiBvH-216" value="" style="edgeStyle=entityRelationEdgeStyle;fontSize=12;html=1;endArrow=ERoneToMany;startArrow=ERmandOne;rounded=0;" parent="1" source="lBa9JgSGZAYA5fIGiBvH-53" target="lBa9JgSGZAYA5fIGiBvH-161" edge="1">
          <mxGeometry width="100" height="100" relative="1" as="geometry">
            <mxPoint x="1560" y="585" as="sourcePoint" />
            <mxPoint x="1550" y="-145" as="targetPoint" />
          </mxGeometry>
        </mxCell>
        <mxCell id="lBa9JgSGZAYA5fIGiBvH-217" value="Has" style="shape=rhombus;perimeter=rhombusPerimeter;whiteSpace=wrap;html=1;align=center;fillColor=#f5f5f5;fontColor=#333333;strokeColor=#666666;" parent="1" vertex="1">
          <mxGeometry x="-140" y="150" width="120" height="60" as="geometry" />
        </mxCell>
        <mxCell id="lBa9JgSGZAYA5fIGiBvH-219" value="" style="endArrow=none;html=1;rounded=0;" parent="1" source="lBa9JgSGZAYA5fIGiBvH-217" target="lBa9JgSGZAYA5fIGiBvH-1" edge="1">
          <mxGeometry relative="1" as="geometry">
            <mxPoint x="200" y="230" as="sourcePoint" />
            <mxPoint x="360" y="230" as="targetPoint" />
          </mxGeometry>
        </mxCell>
        <mxCell id="lBa9JgSGZAYA5fIGiBvH-222" value="1" style="edgeLabel;html=1;align=center;verticalAlign=middle;resizable=0;points=[];" parent="lBa9JgSGZAYA5fIGiBvH-219" vertex="1" connectable="0">
          <mxGeometry x="0.6205" y="2" relative="1" as="geometry">
            <mxPoint y="-1" as="offset" />
          </mxGeometry>
        </mxCell>
        <mxCell id="lBa9JgSGZAYA5fIGiBvH-220" value="" style="endArrow=none;html=1;rounded=0;" parent="1" source="lBa9JgSGZAYA5fIGiBvH-2" target="lBa9JgSGZAYA5fIGiBvH-217" edge="1">
          <mxGeometry relative="1" as="geometry">
            <mxPoint x="-57" y="228" as="sourcePoint" />
            <mxPoint x="45" y="310" as="targetPoint" />
          </mxGeometry>
        </mxCell>
        <mxCell id="lBa9JgSGZAYA5fIGiBvH-221" value="n" style="edgeLabel;html=1;align=center;verticalAlign=middle;resizable=0;points=[];" parent="lBa9JgSGZAYA5fIGiBvH-220" vertex="1" connectable="0">
          <mxGeometry x="-0.7412" y="-1" relative="1" as="geometry">
            <mxPoint as="offset" />
          </mxGeometry>
        </mxCell>
        <mxCell id="lBa9JgSGZAYA5fIGiBvH-233" value="" style="edgeStyle=entityRelationEdgeStyle;fontSize=12;html=1;endArrow=ERoneToMany;startArrow=ERmandOne;rounded=0;" parent="1" source="lBa9JgSGZAYA5fIGiBvH-184" target="lBa9JgSGZAYA5fIGiBvH-229" edge="1">
          <mxGeometry width="100" height="100" relative="1" as="geometry">
            <mxPoint x="770" y="530" as="sourcePoint" />
            <mxPoint x="730" y="-200" as="targetPoint" />
            <Array as="points">
              <mxPoint x="820" y="165" />
              <mxPoint x="830" y="165" />
            </Array>
          </mxGeometry>
        </mxCell>
        <mxCell id="lBa9JgSGZAYA5fIGiBvH-252" value="MonthlyAnalysis" style="shape=table;startSize=30;container=1;collapsible=1;childLayout=tableLayout;fixedRows=1;rowLines=0;fontStyle=1;align=center;resizeLast=1;html=1;fillColor=#dae8fc;strokeColor=#6c8ebf;" parent="1" vertex="1">
          <mxGeometry x="1720" y="380" width="260" height="300" as="geometry" />
        </mxCell>
        <mxCell id="lBa9JgSGZAYA5fIGiBvH-253" value="" style="shape=tableRow;horizontal=0;startSize=0;swimlaneHead=0;swimlaneBody=0;fillColor=none;collapsible=0;dropTarget=0;points=[[0,0.5],[1,0.5]];portConstraint=eastwest;top=0;left=0;right=0;bottom=1;" parent="lBa9JgSGZAYA5fIGiBvH-252" vertex="1">
          <mxGeometry y="30" width="260" height="30" as="geometry" />
        </mxCell>
        <mxCell id="lBa9JgSGZAYA5fIGiBvH-254" value="PK" style="shape=partialRectangle;connectable=0;fillColor=none;top=0;left=0;bottom=0;right=0;fontStyle=1;overflow=hidden;whiteSpace=wrap;html=1;" parent="lBa9JgSGZAYA5fIGiBvH-253" vertex="1">
          <mxGeometry width="30" height="30" as="geometry">
            <mxRectangle width="30" height="30" as="alternateBounds" />
          </mxGeometry>
        </mxCell>
        <mxCell id="lBa9JgSGZAYA5fIGiBvH-255" value="monthlyAnalysisId : ObjectId" style="shape=partialRectangle;connectable=0;fillColor=none;top=0;left=0;bottom=0;right=0;align=left;spacingLeft=6;fontStyle=5;overflow=hidden;whiteSpace=wrap;html=1;" parent="lBa9JgSGZAYA5fIGiBvH-253" vertex="1">
          <mxGeometry x="30" width="230" height="30" as="geometry">
            <mxRectangle width="230" height="30" as="alternateBounds" />
          </mxGeometry>
        </mxCell>
        <mxCell id="lBa9JgSGZAYA5fIGiBvH-265" value="" style="shape=tableRow;horizontal=0;startSize=0;swimlaneHead=0;swimlaneBody=0;fillColor=none;collapsible=0;dropTarget=0;points=[[0,0.5],[1,0.5]];portConstraint=eastwest;top=0;left=0;right=0;bottom=0;" parent="lBa9JgSGZAYA5fIGiBvH-252" vertex="1">
          <mxGeometry y="60" width="260" height="30" as="geometry" />
        </mxCell>
        <mxCell id="lBa9JgSGZAYA5fIGiBvH-266" value="FK" style="shape=partialRectangle;connectable=0;fillColor=none;top=0;left=0;bottom=0;right=0;editable=1;overflow=hidden;" parent="lBa9JgSGZAYA5fIGiBvH-265" vertex="1">
          <mxGeometry width="30" height="30" as="geometry">
            <mxRectangle width="30" height="30" as="alternateBounds" />
          </mxGeometry>
        </mxCell>
        <mxCell id="lBa9JgSGZAYA5fIGiBvH-267" value="boardId : ObjectId" style="shape=partialRectangle;connectable=0;fillColor=none;top=0;left=0;bottom=0;right=0;align=left;spacingLeft=6;overflow=hidden;" parent="lBa9JgSGZAYA5fIGiBvH-265" vertex="1">
          <mxGeometry x="30" width="230" height="30" as="geometry">
            <mxRectangle width="230" height="30" as="alternateBounds" />
          </mxGeometry>
        </mxCell>
        <mxCell id="lBa9JgSGZAYA5fIGiBvH-256" value="" style="shape=tableRow;horizontal=0;startSize=0;swimlaneHead=0;swimlaneBody=0;fillColor=none;collapsible=0;dropTarget=0;points=[[0,0.5],[1,0.5]];portConstraint=eastwest;top=0;left=0;right=0;bottom=0;" parent="lBa9JgSGZAYA5fIGiBvH-252" vertex="1">
          <mxGeometry y="90" width="260" height="30" as="geometry" />
        </mxCell>
        <mxCell id="lBa9JgSGZAYA5fIGiBvH-257" value="" style="shape=partialRectangle;connectable=0;fillColor=none;top=0;left=0;bottom=0;right=0;editable=1;overflow=hidden;whiteSpace=wrap;html=1;" parent="lBa9JgSGZAYA5fIGiBvH-256" vertex="1">
          <mxGeometry width="30" height="30" as="geometry">
            <mxRectangle width="30" height="30" as="alternateBounds" />
          </mxGeometry>
        </mxCell>
        <mxCell id="lBa9JgSGZAYA5fIGiBvH-258" value="total : number" style="shape=partialRectangle;connectable=0;fillColor=none;top=0;left=0;bottom=0;right=0;align=left;spacingLeft=6;overflow=hidden;whiteSpace=wrap;html=1;" parent="lBa9JgSGZAYA5fIGiBvH-256" vertex="1">
          <mxGeometry x="30" width="230" height="30" as="geometry">
            <mxRectangle width="230" height="30" as="alternateBounds" />
          </mxGeometry>
        </mxCell>
        <mxCell id="lBa9JgSGZAYA5fIGiBvH-259" value="" style="shape=tableRow;horizontal=0;startSize=0;swimlaneHead=0;swimlaneBody=0;fillColor=none;collapsible=0;dropTarget=0;points=[[0,0.5],[1,0.5]];portConstraint=eastwest;top=0;left=0;right=0;bottom=0;" parent="lBa9JgSGZAYA5fIGiBvH-252" vertex="1">
          <mxGeometry y="120" width="260" height="30" as="geometry" />
        </mxCell>
        <mxCell id="lBa9JgSGZAYA5fIGiBvH-260" value="" style="shape=partialRectangle;connectable=0;fillColor=none;top=0;left=0;bottom=0;right=0;editable=1;overflow=hidden;whiteSpace=wrap;html=1;" parent="lBa9JgSGZAYA5fIGiBvH-259" vertex="1">
          <mxGeometry width="30" height="30" as="geometry">
            <mxRectangle width="30" height="30" as="alternateBounds" />
          </mxGeometry>
        </mxCell>
        <mxCell id="lBa9JgSGZAYA5fIGiBvH-261" value="avg : number" style="shape=partialRectangle;connectable=0;fillColor=none;top=0;left=0;bottom=0;right=0;align=left;spacingLeft=6;overflow=hidden;whiteSpace=wrap;html=1;" parent="lBa9JgSGZAYA5fIGiBvH-259" vertex="1">
          <mxGeometry x="30" width="230" height="30" as="geometry">
            <mxRectangle width="230" height="30" as="alternateBounds" />
          </mxGeometry>
        </mxCell>
        <mxCell id="lBa9JgSGZAYA5fIGiBvH-262" value="" style="shape=tableRow;horizontal=0;startSize=0;swimlaneHead=0;swimlaneBody=0;fillColor=none;collapsible=0;dropTarget=0;points=[[0,0.5],[1,0.5]];portConstraint=eastwest;top=0;left=0;right=0;bottom=0;" parent="lBa9JgSGZAYA5fIGiBvH-252" vertex="1">
          <mxGeometry y="150" width="260" height="30" as="geometry" />
        </mxCell>
        <mxCell id="lBa9JgSGZAYA5fIGiBvH-263" value="" style="shape=partialRectangle;connectable=0;fillColor=none;top=0;left=0;bottom=0;right=0;editable=1;overflow=hidden;whiteSpace=wrap;html=1;" parent="lBa9JgSGZAYA5fIGiBvH-262" vertex="1">
          <mxGeometry width="30" height="30" as="geometry">
            <mxRectangle width="30" height="30" as="alternateBounds" />
          </mxGeometry>
        </mxCell>
        <mxCell id="lBa9JgSGZAYA5fIGiBvH-264" value="variant : number" style="shape=partialRectangle;connectable=0;fillColor=none;top=0;left=0;bottom=0;right=0;align=left;spacingLeft=6;overflow=hidden;whiteSpace=wrap;html=1;" parent="lBa9JgSGZAYA5fIGiBvH-262" vertex="1">
          <mxGeometry x="30" width="230" height="30" as="geometry">
            <mxRectangle width="230" height="30" as="alternateBounds" />
          </mxGeometry>
        </mxCell>
        <mxCell id="lBa9JgSGZAYA5fIGiBvH-269" value="" style="shape=tableRow;horizontal=0;startSize=0;swimlaneHead=0;swimlaneBody=0;fillColor=none;collapsible=0;dropTarget=0;points=[[0,0.5],[1,0.5]];portConstraint=eastwest;top=0;left=0;right=0;bottom=0;" parent="lBa9JgSGZAYA5fIGiBvH-252" vertex="1">
          <mxGeometry y="180" width="260" height="30" as="geometry" />
        </mxCell>
        <mxCell id="lBa9JgSGZAYA5fIGiBvH-270" value="" style="shape=partialRectangle;connectable=0;fillColor=none;top=0;left=0;bottom=0;right=0;editable=1;overflow=hidden;" parent="lBa9JgSGZAYA5fIGiBvH-269" vertex="1">
          <mxGeometry width="30" height="30" as="geometry">
            <mxRectangle width="30" height="30" as="alternateBounds" />
          </mxGeometry>
        </mxCell>
        <mxCell id="lBa9JgSGZAYA5fIGiBvH-271" value="median : number" style="shape=partialRectangle;connectable=0;fillColor=none;top=0;left=0;bottom=0;right=0;align=left;spacingLeft=6;overflow=hidden;" parent="lBa9JgSGZAYA5fIGiBvH-269" vertex="1">
          <mxGeometry x="30" width="230" height="30" as="geometry">
            <mxRectangle width="230" height="30" as="alternateBounds" />
          </mxGeometry>
        </mxCell>
        <mxCell id="lBa9JgSGZAYA5fIGiBvH-301" value="" style="shape=tableRow;horizontal=0;startSize=0;swimlaneHead=0;swimlaneBody=0;fillColor=none;collapsible=0;dropTarget=0;points=[[0,0.5],[1,0.5]];portConstraint=eastwest;top=0;left=0;right=0;bottom=0;" parent="lBa9JgSGZAYA5fIGiBvH-252" vertex="1">
          <mxGeometry y="210" width="260" height="30" as="geometry" />
        </mxCell>
        <mxCell id="lBa9JgSGZAYA5fIGiBvH-302" value="" style="shape=partialRectangle;connectable=0;fillColor=none;top=0;left=0;bottom=0;right=0;editable=1;overflow=hidden;" parent="lBa9JgSGZAYA5fIGiBvH-301" vertex="1">
          <mxGeometry width="30" height="30" as="geometry">
            <mxRectangle width="30" height="30" as="alternateBounds" />
          </mxGeometry>
        </mxCell>
        <mxCell id="lBa9JgSGZAYA5fIGiBvH-303" value="month : number" style="shape=partialRectangle;connectable=0;fillColor=none;top=0;left=0;bottom=0;right=0;align=left;spacingLeft=6;overflow=hidden;" parent="lBa9JgSGZAYA5fIGiBvH-301" vertex="1">
          <mxGeometry x="30" width="230" height="30" as="geometry">
            <mxRectangle width="230" height="30" as="alternateBounds" />
          </mxGeometry>
        </mxCell>
        <mxCell id="lBa9JgSGZAYA5fIGiBvH-304" value="" style="shape=tableRow;horizontal=0;startSize=0;swimlaneHead=0;swimlaneBody=0;fillColor=none;collapsible=0;dropTarget=0;points=[[0,0.5],[1,0.5]];portConstraint=eastwest;top=0;left=0;right=0;bottom=0;" parent="lBa9JgSGZAYA5fIGiBvH-252" vertex="1">
          <mxGeometry y="240" width="260" height="30" as="geometry" />
        </mxCell>
        <mxCell id="lBa9JgSGZAYA5fIGiBvH-305" value="" style="shape=partialRectangle;connectable=0;fillColor=none;top=0;left=0;bottom=0;right=0;editable=1;overflow=hidden;" parent="lBa9JgSGZAYA5fIGiBvH-304" vertex="1">
          <mxGeometry width="30" height="30" as="geometry">
            <mxRectangle width="30" height="30" as="alternateBounds" />
          </mxGeometry>
        </mxCell>
        <mxCell id="lBa9JgSGZAYA5fIGiBvH-306" value="year : number" style="shape=partialRectangle;connectable=0;fillColor=none;top=0;left=0;bottom=0;right=0;align=left;spacingLeft=6;overflow=hidden;" parent="lBa9JgSGZAYA5fIGiBvH-304" vertex="1">
          <mxGeometry x="30" width="230" height="30" as="geometry">
            <mxRectangle width="230" height="30" as="alternateBounds" />
          </mxGeometry>
        </mxCell>
        <mxCell id="lBa9JgSGZAYA5fIGiBvH-273" value="" style="shape=tableRow;horizontal=0;startSize=0;swimlaneHead=0;swimlaneBody=0;fillColor=none;collapsible=0;dropTarget=0;points=[[0,0.5],[1,0.5]];portConstraint=eastwest;top=0;left=0;right=0;bottom=0;" parent="lBa9JgSGZAYA5fIGiBvH-252" vertex="1">
          <mxGeometry y="270" width="260" height="30" as="geometry" />
        </mxCell>
        <mxCell id="lBa9JgSGZAYA5fIGiBvH-274" value="" style="shape=partialRectangle;connectable=0;fillColor=none;top=0;left=0;bottom=0;right=0;editable=1;overflow=hidden;" parent="lBa9JgSGZAYA5fIGiBvH-273" vertex="1">
          <mxGeometry width="30" height="30" as="geometry">
            <mxRectangle width="30" height="30" as="alternateBounds" />
          </mxGeometry>
        </mxCell>
        <mxCell id="lBa9JgSGZAYA5fIGiBvH-275" value="createdAt : number" style="shape=partialRectangle;connectable=0;fillColor=none;top=0;left=0;bottom=0;right=0;align=left;spacingLeft=6;overflow=hidden;" parent="lBa9JgSGZAYA5fIGiBvH-273" vertex="1">
          <mxGeometry x="30" width="230" height="30" as="geometry">
            <mxRectangle width="230" height="30" as="alternateBounds" />
          </mxGeometry>
        </mxCell>
        <mxCell id="lBa9JgSGZAYA5fIGiBvH-268" value="" style="edgeStyle=entityRelationEdgeStyle;fontSize=12;html=1;endArrow=ERoneToMany;startArrow=ERmandOne;rounded=0;" parent="1" source="lBa9JgSGZAYA5fIGiBvH-53" target="lBa9JgSGZAYA5fIGiBvH-265" edge="1">
          <mxGeometry width="100" height="100" relative="1" as="geometry">
            <mxPoint x="1560" y="585" as="sourcePoint" />
            <mxPoint x="1730" y="175" as="targetPoint" />
          </mxGeometry>
        </mxCell>
        <mxCell id="lBa9JgSGZAYA5fIGiBvH-276" value="MonthlyAnalysis" style="shape=table;startSize=30;container=1;collapsible=1;childLayout=tableLayout;fixedRows=1;rowLines=0;fontStyle=1;align=center;resizeLast=1;html=1;fillColor=#dae8fc;strokeColor=#6c8ebf;" parent="1" vertex="1">
          <mxGeometry x="1730" y="760" width="260" height="270" as="geometry" />
        </mxCell>
        <mxCell id="lBa9JgSGZAYA5fIGiBvH-277" value="" style="shape=tableRow;horizontal=0;startSize=0;swimlaneHead=0;swimlaneBody=0;fillColor=none;collapsible=0;dropTarget=0;points=[[0,0.5],[1,0.5]];portConstraint=eastwest;top=0;left=0;right=0;bottom=1;" parent="lBa9JgSGZAYA5fIGiBvH-276" vertex="1">
          <mxGeometry y="30" width="260" height="30" as="geometry" />
        </mxCell>
        <mxCell id="lBa9JgSGZAYA5fIGiBvH-278" value="PK" style="shape=partialRectangle;connectable=0;fillColor=none;top=0;left=0;bottom=0;right=0;fontStyle=1;overflow=hidden;whiteSpace=wrap;html=1;" parent="lBa9JgSGZAYA5fIGiBvH-277" vertex="1">
          <mxGeometry width="30" height="30" as="geometry">
            <mxRectangle width="30" height="30" as="alternateBounds" />
          </mxGeometry>
        </mxCell>
        <mxCell id="lBa9JgSGZAYA5fIGiBvH-279" value="monthlyAnalysisId : ObjectId" style="shape=partialRectangle;connectable=0;fillColor=none;top=0;left=0;bottom=0;right=0;align=left;spacingLeft=6;fontStyle=5;overflow=hidden;whiteSpace=wrap;html=1;" parent="lBa9JgSGZAYA5fIGiBvH-277" vertex="1">
          <mxGeometry x="30" width="230" height="30" as="geometry">
            <mxRectangle width="230" height="30" as="alternateBounds" />
          </mxGeometry>
        </mxCell>
        <mxCell id="lBa9JgSGZAYA5fIGiBvH-280" value="" style="shape=tableRow;horizontal=0;startSize=0;swimlaneHead=0;swimlaneBody=0;fillColor=none;collapsible=0;dropTarget=0;points=[[0,0.5],[1,0.5]];portConstraint=eastwest;top=0;left=0;right=0;bottom=0;" parent="lBa9JgSGZAYA5fIGiBvH-276" vertex="1">
          <mxGeometry y="60" width="260" height="30" as="geometry" />
        </mxCell>
        <mxCell id="lBa9JgSGZAYA5fIGiBvH-281" value="FK" style="shape=partialRectangle;connectable=0;fillColor=none;top=0;left=0;bottom=0;right=0;editable=1;overflow=hidden;" parent="lBa9JgSGZAYA5fIGiBvH-280" vertex="1">
          <mxGeometry width="30" height="30" as="geometry">
            <mxRectangle width="30" height="30" as="alternateBounds" />
          </mxGeometry>
        </mxCell>
        <mxCell id="lBa9JgSGZAYA5fIGiBvH-282" value="boardId : ObjectId" style="shape=partialRectangle;connectable=0;fillColor=none;top=0;left=0;bottom=0;right=0;align=left;spacingLeft=6;overflow=hidden;" parent="lBa9JgSGZAYA5fIGiBvH-280" vertex="1">
          <mxGeometry x="30" width="230" height="30" as="geometry">
            <mxRectangle width="230" height="30" as="alternateBounds" />
          </mxGeometry>
        </mxCell>
        <mxCell id="lBa9JgSGZAYA5fIGiBvH-283" value="" style="shape=tableRow;horizontal=0;startSize=0;swimlaneHead=0;swimlaneBody=0;fillColor=none;collapsible=0;dropTarget=0;points=[[0,0.5],[1,0.5]];portConstraint=eastwest;top=0;left=0;right=0;bottom=0;" parent="lBa9JgSGZAYA5fIGiBvH-276" vertex="1">
          <mxGeometry y="90" width="260" height="30" as="geometry" />
        </mxCell>
        <mxCell id="lBa9JgSGZAYA5fIGiBvH-284" value="" style="shape=partialRectangle;connectable=0;fillColor=none;top=0;left=0;bottom=0;right=0;editable=1;overflow=hidden;whiteSpace=wrap;html=1;" parent="lBa9JgSGZAYA5fIGiBvH-283" vertex="1">
          <mxGeometry width="30" height="30" as="geometry">
            <mxRectangle width="30" height="30" as="alternateBounds" />
          </mxGeometry>
        </mxCell>
        <mxCell id="lBa9JgSGZAYA5fIGiBvH-285" value="total : number" style="shape=partialRectangle;connectable=0;fillColor=none;top=0;left=0;bottom=0;right=0;align=left;spacingLeft=6;overflow=hidden;whiteSpace=wrap;html=1;" parent="lBa9JgSGZAYA5fIGiBvH-283" vertex="1">
          <mxGeometry x="30" width="230" height="30" as="geometry">
            <mxRectangle width="230" height="30" as="alternateBounds" />
          </mxGeometry>
        </mxCell>
        <mxCell id="lBa9JgSGZAYA5fIGiBvH-286" value="" style="shape=tableRow;horizontal=0;startSize=0;swimlaneHead=0;swimlaneBody=0;fillColor=none;collapsible=0;dropTarget=0;points=[[0,0.5],[1,0.5]];portConstraint=eastwest;top=0;left=0;right=0;bottom=0;" parent="lBa9JgSGZAYA5fIGiBvH-276" vertex="1">
          <mxGeometry y="120" width="260" height="30" as="geometry" />
        </mxCell>
        <mxCell id="lBa9JgSGZAYA5fIGiBvH-287" value="" style="shape=partialRectangle;connectable=0;fillColor=none;top=0;left=0;bottom=0;right=0;editable=1;overflow=hidden;whiteSpace=wrap;html=1;" parent="lBa9JgSGZAYA5fIGiBvH-286" vertex="1">
          <mxGeometry width="30" height="30" as="geometry">
            <mxRectangle width="30" height="30" as="alternateBounds" />
          </mxGeometry>
        </mxCell>
        <mxCell id="lBa9JgSGZAYA5fIGiBvH-288" value="avg : number" style="shape=partialRectangle;connectable=0;fillColor=none;top=0;left=0;bottom=0;right=0;align=left;spacingLeft=6;overflow=hidden;whiteSpace=wrap;html=1;" parent="lBa9JgSGZAYA5fIGiBvH-286" vertex="1">
          <mxGeometry x="30" width="230" height="30" as="geometry">
            <mxRectangle width="230" height="30" as="alternateBounds" />
          </mxGeometry>
        </mxCell>
        <mxCell id="lBa9JgSGZAYA5fIGiBvH-289" value="" style="shape=tableRow;horizontal=0;startSize=0;swimlaneHead=0;swimlaneBody=0;fillColor=none;collapsible=0;dropTarget=0;points=[[0,0.5],[1,0.5]];portConstraint=eastwest;top=0;left=0;right=0;bottom=0;" parent="lBa9JgSGZAYA5fIGiBvH-276" vertex="1">
          <mxGeometry y="150" width="260" height="30" as="geometry" />
        </mxCell>
        <mxCell id="lBa9JgSGZAYA5fIGiBvH-290" value="" style="shape=partialRectangle;connectable=0;fillColor=none;top=0;left=0;bottom=0;right=0;editable=1;overflow=hidden;whiteSpace=wrap;html=1;" parent="lBa9JgSGZAYA5fIGiBvH-289" vertex="1">
          <mxGeometry width="30" height="30" as="geometry">
            <mxRectangle width="30" height="30" as="alternateBounds" />
          </mxGeometry>
        </mxCell>
        <mxCell id="lBa9JgSGZAYA5fIGiBvH-291" value="variant : number" style="shape=partialRectangle;connectable=0;fillColor=none;top=0;left=0;bottom=0;right=0;align=left;spacingLeft=6;overflow=hidden;whiteSpace=wrap;html=1;" parent="lBa9JgSGZAYA5fIGiBvH-289" vertex="1">
          <mxGeometry x="30" width="230" height="30" as="geometry">
            <mxRectangle width="230" height="30" as="alternateBounds" />
          </mxGeometry>
        </mxCell>
        <mxCell id="lBa9JgSGZAYA5fIGiBvH-292" value="" style="shape=tableRow;horizontal=0;startSize=0;swimlaneHead=0;swimlaneBody=0;fillColor=none;collapsible=0;dropTarget=0;points=[[0,0.5],[1,0.5]];portConstraint=eastwest;top=0;left=0;right=0;bottom=0;" parent="lBa9JgSGZAYA5fIGiBvH-276" vertex="1">
          <mxGeometry y="180" width="260" height="30" as="geometry" />
        </mxCell>
        <mxCell id="lBa9JgSGZAYA5fIGiBvH-293" value="" style="shape=partialRectangle;connectable=0;fillColor=none;top=0;left=0;bottom=0;right=0;editable=1;overflow=hidden;" parent="lBa9JgSGZAYA5fIGiBvH-292" vertex="1">
          <mxGeometry width="30" height="30" as="geometry">
            <mxRectangle width="30" height="30" as="alternateBounds" />
          </mxGeometry>
        </mxCell>
        <mxCell id="lBa9JgSGZAYA5fIGiBvH-294" value="median : number" style="shape=partialRectangle;connectable=0;fillColor=none;top=0;left=0;bottom=0;right=0;align=left;spacingLeft=6;overflow=hidden;" parent="lBa9JgSGZAYA5fIGiBvH-292" vertex="1">
          <mxGeometry x="30" width="230" height="30" as="geometry">
            <mxRectangle width="230" height="30" as="alternateBounds" />
          </mxGeometry>
        </mxCell>
        <mxCell id="lBa9JgSGZAYA5fIGiBvH-307" value="" style="shape=tableRow;horizontal=0;startSize=0;swimlaneHead=0;swimlaneBody=0;fillColor=none;collapsible=0;dropTarget=0;points=[[0,0.5],[1,0.5]];portConstraint=eastwest;top=0;left=0;right=0;bottom=0;" parent="lBa9JgSGZAYA5fIGiBvH-276" vertex="1">
          <mxGeometry y="210" width="260" height="30" as="geometry" />
        </mxCell>
        <mxCell id="lBa9JgSGZAYA5fIGiBvH-308" value="" style="shape=partialRectangle;connectable=0;fillColor=none;top=0;left=0;bottom=0;right=0;editable=1;overflow=hidden;" parent="lBa9JgSGZAYA5fIGiBvH-307" vertex="1">
          <mxGeometry width="30" height="30" as="geometry">
            <mxRectangle width="30" height="30" as="alternateBounds" />
          </mxGeometry>
        </mxCell>
        <mxCell id="lBa9JgSGZAYA5fIGiBvH-309" value="year : number" style="shape=partialRectangle;connectable=0;fillColor=none;top=0;left=0;bottom=0;right=0;align=left;spacingLeft=6;overflow=hidden;" parent="lBa9JgSGZAYA5fIGiBvH-307" vertex="1">
          <mxGeometry x="30" width="230" height="30" as="geometry">
            <mxRectangle width="230" height="30" as="alternateBounds" />
          </mxGeometry>
        </mxCell>
        <mxCell id="lBa9JgSGZAYA5fIGiBvH-295" value="" style="shape=tableRow;horizontal=0;startSize=0;swimlaneHead=0;swimlaneBody=0;fillColor=none;collapsible=0;dropTarget=0;points=[[0,0.5],[1,0.5]];portConstraint=eastwest;top=0;left=0;right=0;bottom=0;" parent="lBa9JgSGZAYA5fIGiBvH-276" vertex="1">
          <mxGeometry y="240" width="260" height="30" as="geometry" />
        </mxCell>
        <mxCell id="lBa9JgSGZAYA5fIGiBvH-296" value="" style="shape=partialRectangle;connectable=0;fillColor=none;top=0;left=0;bottom=0;right=0;editable=1;overflow=hidden;" parent="lBa9JgSGZAYA5fIGiBvH-295" vertex="1">
          <mxGeometry width="30" height="30" as="geometry">
            <mxRectangle width="30" height="30" as="alternateBounds" />
          </mxGeometry>
        </mxCell>
        <mxCell id="lBa9JgSGZAYA5fIGiBvH-297" value="createdAt : number" style="shape=partialRectangle;connectable=0;fillColor=none;top=0;left=0;bottom=0;right=0;align=left;spacingLeft=6;overflow=hidden;" parent="lBa9JgSGZAYA5fIGiBvH-295" vertex="1">
          <mxGeometry x="30" width="230" height="30" as="geometry">
            <mxRectangle width="230" height="30" as="alternateBounds" />
          </mxGeometry>
        </mxCell>
        <mxCell id="lBa9JgSGZAYA5fIGiBvH-310" value="" style="edgeStyle=entityRelationEdgeStyle;fontSize=12;html=1;endArrow=ERoneToMany;startArrow=ERmandOne;rounded=0;" parent="1" source="lBa9JgSGZAYA5fIGiBvH-53" target="lBa9JgSGZAYA5fIGiBvH-280" edge="1">
          <mxGeometry width="100" height="100" relative="1" as="geometry">
            <mxPoint x="1560" y="585" as="sourcePoint" />
            <mxPoint x="1730" y="465" as="targetPoint" />
          </mxGeometry>
        </mxCell>
      </root>
    </mxGraphModel>
  </diagram>
</mxfile>
